<svg width="592" height="421" viewBox="0 0 592 421" fill="none" xmlns="http://www.w3.org/2000/svg">
<g clip-path="url(#clip0_2_31)">
<path d="M472.68 277.53L463.205 252.746L447.384 257.553L415.07 173L379.044 183.945L379.153 184.233L367.533 228.961L351 292.591L360.645 311.58L394.662 301.243L407.045 297.479L420.831 293.288L432.086 322.744L468.113 311.799L456.857 282.342L472.68 277.53ZM407.173 269.774L399.001 272.258L383.35 277.015L394.032 229.719L395.037 225.794L411.357 268.502L407.173 269.774Z" fill="#3498db"/>
<path opacity="0.25" d="M456.857 282.342L468.113 311.798L445.166 303.045L408.491 185.208L395.037 225.795L388.807 248.784L367.534 228.959L379.154 184.232L379.045 183.944L415.07 173L447.383 257.554L463.204 252.746L472.68 277.53L456.857 282.342Z" fill="#010101"/>
<path opacity="0.25" d="M407.045 297.478L394.662 301.242L396.482 278.485V274.336L399.001 272.258L400.622 270.923L407.172 269.774C407.173 269.774 406.767 286.49 407.045 297.478Z" fill="#010101"/>
<path d="M407.175 269.773C407.175 269.773 404.08 266.308 398.676 266.708C393.273 267.109 390.258 268.916 390.077 273.935C389.895 278.955 391.238 304.25 390.005 314.288C388.771 324.327 396.446 325.33 396.886 317.902C397.327 310.474 394.065 287.186 396.483 283.372C398.902 279.557 397.43 287.587 399.967 290.198C402.504 292.807 405.205 288.19 402.504 281.967C399.802 275.742 407.175 269.773 407.175 269.773Z" fill="url(#paint0_linear_2_31)"/>
<path d="M88.9306 224.308C88.0326 224.308 87.3676 224.259 87.0806 224.139C86.7456 223.998 85.7236 223.572 76.8016 207.646L78.4056 206.748C81.7376 212.695 86.7906 221.351 87.8606 222.458C88.8316 222.615 94.1676 222.243 98.8956 221.768L99.0806 223.598C96.1036 223.896 91.5356 224.308 88.9306 224.308Z" fill="#4ADE80"/>
<path d="M121.273 232.031V232.564C121.273 232.564 120.786 242.673 113.218 242.237C113.199 242.237 113.181 242.232 113.162 242.232C108.482 241.929 102.689 239.745 98.8046 238.123C96.3636 237.102 94.6716 236.302 94.4836 236.334C93.9916 236.412 100.216 262.305 100.133 263.78C100.124 263.978 100.078 264.189 100.009 264.406C99.5676 265.808 98.0276 267.49 97.1036 267.629C97.0066 267.643 96.8096 267.463 96.5296 267.113C93.7156 263.615 82.5766 243.295 82.2726 236.66C81.9466 229.369 85.6326 224.978 90.6306 224.141C94.3176 223.525 105.099 225.01 110.5 225.833C112.418 226.127 113.654 226.334 113.654 226.334L121.273 232.031Z" fill="#0A2533"/>
<path opacity="0.25" d="M100.134 263.78C100.125 263.978 100.079 264.189 100.01 264.406C99.5686 265.808 98.0286 267.49 97.1046 267.629C97.0076 267.643 96.8106 267.463 96.5306 267.113C100.494 261.518 90.1346 234.279 92.3876 234.201C93.4996 234.164 95.9596 236.054 98.8056 238.123C96.3646 237.102 94.6726 236.302 94.4846 236.334C93.9916 236.412 100.217 262.304 100.134 263.78Z" fill="#010101"/>
<path opacity="0.25" d="M121.273 232.031V232.564C121.273 232.564 120.786 242.673 113.218 242.237C114.707 241.047 114.983 238.95 114.872 236.412C114.744 233.474 112.026 228.445 110.5 225.834C112.418 226.128 113.654 226.335 113.654 226.335L121.273 232.031Z" fill="#010101"/>
<path d="M105.168 198.837C104.916 199.233 104.75 199.564 104.75 199.816C104.75 199.816 104.741 199.801 104.723 199.77C104.635 199.614 104.318 199.067 103.91 198.432C103.22 197.366 102.268 196.041 101.693 195.88C100.769 195.627 98.3096 198.734 94.9856 198.983C94.7646 199.003 94.5446 199.006 94.3186 198.998C90.6596 198.832 86.7786 193.642 89.8956 187.527C90.9856 189.766 93.2246 189.821 93.2246 189.821C93.2246 189.821 91.8586 189.546 91.8086 187.853C95.7936 188.561 97.8686 185.559 101.312 186.653C104.75 187.742 104.535 189.82 104.535 189.82C104.535 189.82 107.155 188.781 107.973 192.059C108.63 194.681 106.18 197.265 105.168 198.837Z" fill="#0A2533"/>
<path d="M104.723 199.771C104.489 200.598 104.042 201.5 103.44 202.23C102.71 203.123 101.744 203.775 100.654 203.748C98.3276 203.693 96.0146 200.571 94.9856 198.984C98.3096 198.736 100.769 195.629 101.693 195.881C102.268 196.042 103.219 197.366 103.91 198.433C104.317 199.068 104.635 199.615 104.723 199.771Z" fill="url(#paint1_linear_2_31)"/>
<path d="M108.083 200.087C108.083 200.087 106.336 204.078 105.679 203.204C105.325 202.731 104.304 202.419 103.44 202.229C104.043 201.499 104.489 200.597 104.723 199.77C104.742 199.801 104.75 199.816 104.75 199.816C104.75 199.563 104.916 199.232 105.168 198.837C106.437 199.794 108.083 200.087 108.083 200.087Z" fill="url(#paint2_linear_2_31)"/>
<path d="M120.372 233.792C117.586 233.383 110.051 225.19 110.051 221.664C110.051 221.167 109.996 220.615 109.904 220.014C109.325 216.345 107.206 210.966 106.323 207.164C105.298 202.741 106.773 201.086 106.773 201.086C110.203 195.188 117.965 206.879 122.392 216.253L122.397 216.258C123.886 219.416 124.871 222.349 124.962 224.313C125.279 230.95 123.158 234.201 120.372 233.792Z" fill="#5462AD"/>
<path opacity="0.25" d="M120.372 233.792C117.586 233.383 110.051 225.19 110.051 221.664C110.051 221.167 109.996 220.615 109.904 220.014L109.886 218.442L112.616 204.134C112.616 204.134 116.386 208.617 116.988 216.644C117.586 224.671 126.424 226.418 122.396 216.258C123.885 219.416 124.87 222.349 124.961 224.313C125.279 230.95 123.158 234.201 120.372 233.792Z" fill="#010101"/>
<path d="M114.528 216.096C114.455 216.159 114.326 216.21 114.156 216.257C112.864 216.614 109.099 216.56 107.531 216.252C107.297 216.206 107.108 216.151 106.989 216.096C105.955 215.604 106.989 214.4 106.663 212.271C106.336 210.138 105.517 203.913 108.685 202C111.999 200 114.417 207.571 114.528 211.342C114.639 215.113 115.241 215.494 114.528 216.096Z" fill="#5462AD"/>
<path d="M114.156 216.257C114.156 216.257 114.005 225.465 112.248 229.81C112.248 229.815 112.248 229.815 112.248 229.819C111.701 231.171 110.998 232.049 110.092 232.031C106.281 231.948 97.7207 222.896 96.9397 222.565C96.1627 222.238 92.2687 222.813 92.3927 222.238C92.5167 221.664 94.0337 220.394 95.6697 219.783C97.3117 219.168 97.0217 219.535 107.55 224.372C107.407 223.443 107.467 219.425 107.513 217.149C107.518 216.804 107.528 216.501 107.532 216.253C109.1 216.56 112.864 216.615 114.156 216.257Z" fill="url(#paint3_linear_2_31)"/>
<path d="M103.274 270.005C103.541 271.646 92.5157 282.868 93.0897 279.921C93.6597 276.97 97.1037 267.628 97.1037 267.628C98.0277 267.489 99.5677 265.808 100.009 264.405C100.911 265.968 103.049 268.644 103.274 270.005Z" fill="#5462AD"/>
<path opacity="0.25" d="M113.218 235.54C113.218 235.54 95.5207 232.217 92.0247 233.824C88.5287 235.43 98.4207 263.397 98.4207 263.397" stroke="white" stroke-width="0.4597" stroke-miterlimit="10"/>
<path opacity="0.25" d="M112.248 229.81C112.584 227.961 112.837 222.587 111.908 220.463C111.283 219.028 108.957 217.796 107.512 217.149C107.517 216.804 107.527 216.501 107.531 216.253C109.099 216.561 112.864 216.615 114.156 216.258C114.156 216.257 114.005 225.465 112.248 229.81Z" fill="#010101"/>
<path d="M398.257 167.529C397.899 168.908 397.301 170.683 396.372 173.059C395.048 176.466 393.048 181.109 390.101 187.582C390.028 190.87 388.98 211.838 388.695 216.665C388.658 217.254 388.635 217.603 388.626 217.649C388.585 217.86 387.826 218.265 386.999 218.472C386.217 218.674 385.381 218.701 385.021 218.223C384.281 217.24 379.284 197.41 379.041 192.741C378.793 188.07 378.549 189.136 384.281 170.54C382.888 171.193 373.859 170.949 373.859 170.949C373.859 170.949 375.514 193.724 375.523 193.889C375.523 193.912 375.509 193.967 375.477 194.045C375.372 194.358 375.04 195.053 374.682 195.402C374.521 195.562 374.355 195.654 374.203 195.608C374.116 195.586 373.904 195.392 373.597 195.066C371.864 193.226 367.11 187.039 364.535 181.269C361.505 174.469 360.764 169.715 363.634 164.966C366.503 160.213 381.03 159.849 381.03 159.849C381.95 160.106 384.064 160.359 386.156 160.856C386.772 160.999 387.388 161.169 387.968 161.362C391.15 162.419 397.213 163.761 398.519 163.008C398.809 164.022 398.873 165.208 398.257 167.529Z" fill="#3498db"/>
<path d="M410.298 151.696C409.723 152.022 403.048 151.774 398.537 150.054C398.56 150.849 398.661 152.1 398.776 153.521C398.956 155.76 399.163 158.422 399.112 160.362C399.084 161.746 398.924 162.766 398.537 163.001C398.532 163.006 398.528 163.01 398.518 163.01C397.825 163.41 395.792 163.217 393.558 162.794C392.114 162.518 390.588 162.146 389.287 161.773C388.813 161.635 388.368 161.498 387.968 161.364C385.412 160.509 382.222 160.182 381.03 159.851C380.731 159.768 380.561 159.69 380.551 159.598C380.515 159.147 381.659 158.127 382.197 157.06C382.261 156.927 382.348 156.729 382.445 156.476C382.882 155.359 383.567 153.244 383.898 151.897C384.095 151.102 384.169 150.578 383.995 150.669C383.462 150.954 380.307 156.853 379.939 156.853C379.811 156.853 379.176 156.49 378.422 155.979C377.153 155.119 375.558 153.855 375.521 153.253C375.512 153.17 375.535 153.101 375.595 153.046C376.335 152.347 381.985 142.844 384.035 140.817C384.996 139.86 386.132 139.286 387.056 138.946C388.09 138.56 388.872 138.472 388.872 138.472C390.09 138.43 391.317 138.592 392.513 138.895C396.577 139.911 400.306 142.477 402.43 143.745C405.174 145.382 407.059 144.932 407.753 145.341C408.454 145.756 410.867 151.365 410.298 151.696Z" fill="#4ADE80"/>
<path d="M399.112 160.362C395.333 160.408 386.933 160.072 382.446 156.477C382.883 155.36 383.568 153.245 383.899 151.898C383.899 151.898 392.767 154.587 398.776 153.521C398.956 155.76 399.163 158.422 399.112 160.362Z" fill="#F69181"/>
<path opacity="0.25" d="M392.515 138.897C392.369 140.469 391.812 142.161 390.101 142.028C387.688 141.84 387.168 139.867 387.058 138.948C388.092 138.562 388.874 138.474 388.874 138.474C390.092 138.432 391.319 138.593 392.515 138.897Z" fill="#010101"/>
<path d="M391.494 135.471C391.494 135.471 391.085 133.793 390.262 132.929C389.596 134.014 387.026 134.57 385.044 134.713C384.106 134.782 383.297 134.759 382.888 134.653C381.495 129.242 385.839 126.869 388.258 126.704C390.671 126.538 392.846 128.336 392.189 131.081C394.358 133.219 391.494 135.471 391.494 135.471Z" fill="#321212"/>
<path d="M391.494 135.471C391.37 135.83 391.177 136.46 390.846 137.048H390.841C390.299 138.027 389.389 138.896 387.812 138.257C387.757 138.234 387.702 138.211 387.651 138.184C386.323 137.581 385.633 136.409 385.284 135.485C385.174 135.195 385.096 134.929 385.045 134.713C387.026 134.57 389.597 134.014 390.263 132.929C390.3 132.971 390.337 133.012 390.373 133.053C391.122 133.945 391.494 135.471 391.494 135.471Z" fill="url(#paint4_linear_2_31)"/>
<path d="M391.287 139.65C391.044 141.167 388.543 141.085 388.271 140.101C388.128 139.591 387.967 139.099 387.843 138.74C387.733 138.405 387.65 138.188 387.65 138.188V138.184C387.701 138.211 387.756 138.234 387.811 138.257C389.388 138.896 390.298 138.028 390.84 137.048H390.845C390.675 137.388 391.13 137.816 391.282 138.62C391.338 138.91 391.352 139.251 391.287 139.65Z" fill="url(#paint5_linear_2_31)"/>
<path d="M378.3 199.707C378.056 201.592 368.305 208.966 368.471 207.656C368.631 206.345 373.597 195.068 373.597 195.068C373.905 195.394 374.117 195.588 374.203 195.61C374.695 195.753 375.32 194.502 375.476 194.047C376.787 195.693 378.52 198.024 378.3 199.707Z" fill="#262166"/>
<path d="M385.02 233.576C382.726 228.656 385.02 218.224 385.02 218.224C385.756 219.208 388.542 218.059 388.624 217.65C388.634 217.604 388.656 217.254 388.693 216.666C388.693 216.666 389.061 221.664 389.498 225.898C389.935 230.132 387.315 238.49 385.02 233.576Z" fill="#262166"/>
<path opacity="0.25" d="M384.28 170.541C382.887 171.194 373.858 170.95 373.858 170.95C373.858 170.95 375.513 193.725 375.522 193.89C375.522 193.913 375.508 193.968 375.476 194.046C375.371 194.359 375.039 195.054 374.681 195.403C373.017 187.61 369.698 172.668 372.345 170.103C375.734 166.825 384.91 165.952 385.043 166.669C385.177 167.391 384.28 170.541 384.28 170.541Z" fill="#010101"/>
<path d="M377.784 159.778C377.651 160.054 377.582 160.284 377.624 160.436C377.821 161.199 376.773 170.757 377.155 171.741C377.536 172.725 377.757 175.837 377.536 177.805C377.315 179.773 373.22 180.973 373.22 179.281C373.22 177.585 373.712 173.599 373.877 172.068C374.042 170.542 372.512 159.48 372.921 157.949C373.188 156.951 374.213 155.26 374.893 154.207C375.256 153.642 375.523 153.255 375.523 153.255C375.584 154.215 379.606 156.855 379.941 156.855C379.94 156.854 378.322 158.666 377.784 159.778Z" fill="url(#paint6_linear_2_31)"/>
<path opacity="0.25" d="M398.257 167.529C396.45 167.396 394.418 166.605 393.002 165.184C391.356 163.538 388.611 162.012 386.156 160.858C386.772 161.001 387.388 161.171 387.968 161.364C391.15 162.421 397.213 163.763 398.519 163.01C398.809 164.022 398.873 165.208 398.257 167.529Z" fill="#010101"/>
<path opacity="0.25" d="M396.372 173.06C395.048 176.467 393.048 181.11 390.101 187.583C390.028 190.871 388.98 211.839 388.695 216.666C388.658 217.255 388.635 217.604 388.626 217.65C388.585 217.861 387.826 218.266 386.999 218.473C387.187 211.402 386.939 196.01 388.135 191.431C389.563 185.951 395.972 173.814 396.372 173.06Z" fill="#010101"/>
<path opacity="0.25" d="M389.287 161.773C388.813 161.635 388.368 161.498 387.968 161.364C385.412 160.509 382.222 160.182 381.03 159.851C380.731 159.768 380.561 159.69 380.551 159.598C380.515 159.147 381.659 158.127 382.197 157.06C382.73 155.993 384.528 150.38 383.995 150.669C383.462 150.954 380.307 156.853 379.939 156.853C379.811 156.853 379.176 156.49 378.422 155.979C378.5 155.846 378.587 155.712 378.684 155.57C380.648 152.674 383.871 149.07 384.417 145.957C384.854 143.663 385.511 144.973 385.4 147.925C385.302 150.574 385.159 158.684 389.287 161.773Z" fill="#010101"/>
<path opacity="0.25" d="M398.537 163.001C398.532 163.006 398.528 163.01 398.518 163.01C397.825 163.41 395.792 163.217 393.558 162.794C397.553 158.79 395.373 147.944 395.999 148.501C396.734 149.154 398.536 150.055 398.536 150.055C398.62 153.006 399.811 162.224 398.537 163.001Z" fill="#010101"/>
<path opacity="0.25" d="M379.94 156.854C379.94 156.854 378.322 158.666 377.784 159.778C377.77 159.534 377.753 159.309 377.729 159.107C377.605 157.935 375.78 155.387 374.892 154.206C375.255 153.641 375.522 153.254 375.522 153.254C375.583 154.215 379.605 156.854 379.94 156.854Z" fill="#010101"/>
<path opacity="0.25" d="M390.372 133.053C389.389 135.228 386.497 135.48 385.283 135.485C385.173 135.195 385.095 134.929 385.044 134.713C387.025 134.57 389.596 134.014 390.262 132.929C390.299 132.971 390.336 133.012 390.372 133.053Z" fill="#010101"/>
<path opacity="0.25" d="M391.282 138.621C391.098 138.764 390.874 138.87 390.593 138.934C389.274 139.233 388.345 138.976 387.844 138.741C387.734 138.406 387.651 138.189 387.651 138.189V138.185C387.702 138.212 387.757 138.235 387.812 138.258C389.389 138.897 390.299 138.029 390.841 137.049H390.846C390.676 137.389 391.131 137.816 391.282 138.621Z" fill="#010101"/>
<path d="M404.356 -31V173.06" stroke="#0A2533" stroke-width="0.9195" stroke-miterlimit="10"/>
<path d="M412.959 148.772C412.95 148.827 412.937 148.882 412.927 148.933C412.385 151.402 410.408 151.664 410.035 151.503C409.663 151.342 408.679 150.211 407.819 146.226C407.8 146.147 407.787 146.069 407.768 145.987C407.768 145.987 405.911 141.224 405.038 138.934C402.882 137.656 402.473 138.176 402.169 136.7C401.87 135.224 402.827 133.316 403.374 133.04C403.921 132.769 406.376 135.063 406.707 135.909C407.033 136.754 413.451 146.151 412.959 148.772Z" fill="url(#paint7_linear_2_31)"/>
<path opacity="0.25" d="M412.927 148.933C412.385 151.402 410.408 151.664 410.035 151.503C409.663 151.342 408.679 150.211 407.819 146.226C408.366 147.333 409.208 148.768 410.132 149.361C411.147 150.008 412.288 149.802 412.927 148.933Z" fill="#010101"/>
<path d="M338.484 278.611L333.215 251.703C329.317 231.801 321.8 217.283 310.665 208.142C299.525 199.007 285.766 196.042 269.385 199.251C253.004 202.46 241.387 210.358 234.541 222.94C227.691 235.528 226.22 251.807 230.132 271.779L235.419 298.789C239.304 318.622 246.812 333.108 257.951 342.243C262.654 346.1 267.831 348.858 273.481 350.51C281.209 352.777 289.825 352.974 299.327 351.116C304.251 350.155 308.748 348.762 312.807 346.941C322.203 342.73 329.292 336.234 334.074 327.444C340.925 314.857 342.392 298.577 338.484 278.611ZM305.594 314.728C303.792 320.246 299.981 323.574 294.16 324.714C288.133 325.895 283.236 324.203 279.458 319.634C276.883 316.521 274.681 311.901 272.855 305.773C272.855 305.768 272.855 305.763 272.855 305.763C272.851 305.754 272.851 305.744 272.846 305.731C272 302.89 271.237 299.722 270.556 296.233L263.16 258.457C261.427 248.535 261.422 240.876 263.141 235.478C264.861 230.082 268.667 226.803 274.556 225.654C279.048 224.771 282.923 225.53 286.178 227.921H286.183C287.291 228.739 288.329 229.741 289.295 230.937C293.097 235.64 296.039 243.309 298.117 253.933L305.275 290.487C307.291 301.129 307.397 309.206 305.594 314.728Z" fill="#4ADE80"/>
<path opacity="0.25" d="M308.238 319.776C309.756 322.112 311.773 337.991 312.808 346.942C308.748 348.763 304.251 350.156 299.328 351.117C289.826 352.974 281.21 352.777 273.482 350.511C273.798 349.798 274.088 349.053 274.336 348.29C279.159 333.555 273.132 306.969 272.856 305.773C274.681 311.901 276.883 316.521 279.459 319.634C283.237 324.203 288.134 325.895 294.161 324.714C299.981 323.573 303.793 320.245 305.595 314.728C307.398 309.207 307.291 301.129 305.278 290.486L298.12 253.932C296.042 243.308 293.099 235.639 289.298 230.936C288.332 229.741 287.294 228.739 286.186 227.92C297.813 230.2 307.256 266.198 311.191 283.563C315.121 300.931 315.452 308.963 308.238 319.776Z" fill="#010101"/>
<path d="M275.421 312.836C275.421 312.836 276.175 314.807 280.135 315.899C284.096 316.991 287.81 310.865 290.432 312.836C293.054 314.807 297.25 322.976 300.942 321.732C304.634 320.488 305.726 340.152 303.979 342.337C302.231 344.522 300.974 326.862 296.359 327.39C291.743 327.916 295.239 341.244 292.617 343.648C289.995 346.052 291.088 337.749 288.248 336.219C285.407 334.69 291.307 403.077 286.936 404.169C282.566 405.262 279.726 401.11 281.474 386.472C283.222 371.834 281.036 321.362 278.414 318.74C275.794 316.118 275.958 315.626 275.421 312.836Z" fill="#3498db"/>
<path d="M276.394 -31V207.573" stroke="#0A2533" stroke-width="0.9195" stroke-miterlimit="10"/>
<path d="M333.114 115.316C333.114 115.316 329.633 105.771 329.919 105.033C330.206 104.296 334.03 102.903 334.311 103.312C334.59 103.722 337.007 111.137 336.597 111.669C336.187 112.202 333.114 115.316 333.114 115.316Z" fill="#262166"/>
<path d="M275.187 102.799C275.187 102.799 277.312 103.68 278.257 105.975C279.201 108.269 278.833 99.994 278.833 99.994L277.809 99.052L275.187 102.799Z" fill="url(#paint8_linear_2_31)"/>
<path d="M274.081 102.799C274.081 102.799 276.744 104.786 277.195 104.909C277.645 105.032 278.515 99.829 278.122 99.01C277.727 98.19 276.284 97.371 275.347 97.904C274.409 98.437 273.645 102.477 274.081 102.799Z" fill="url(#paint9_linear_2_31)"/>
<path d="M281.169 103.394C281.169 103.394 279.048 98.478 278.122 97.618C277.195 96.758 275.475 97.864 275.351 98.314C275.227 98.764 277.409 99.092 278.122 99.83C278.834 100.568 276.908 106.016 278.752 107.942C280.595 109.867 281.169 103.394 281.169 103.394Z" fill="url(#paint10_linear_2_31)"/>
<path d="M330.493 116.421C330.493 116.421 332.377 115.397 332.787 114.864C333.196 114.331 332.459 112.324 333.647 110.481C334.835 108.637 337.375 109.17 337.989 111.382C338.604 113.594 337.007 116.38 336.269 117.24C335.531 118.1 330.493 121.705 330.493 121.705" fill="url(#paint11_linear_2_31)"/>
<path d="M331.843 120.695C331.788 121.022 331.452 121.582 330.8 122.346C328.409 125.141 321.821 130.612 309.946 136.865C309.712 137.821 309.528 138.796 309.39 139.77C308.949 142.882 308.957 146.027 309.105 148.854C309.141 149.581 309.187 150.289 309.238 150.969C309.455 153.948 309.749 156.408 309.671 157.833C309.634 158.458 309.524 158.881 309.313 159.069C309.046 159.303 308.765 159.515 308.471 159.704C302.54 163.511 291.745 157.824 289.998 156.113C289.86 155.98 289.777 155.869 289.76 155.791C289.456 154.642 290.633 153.414 291.29 151.446C291.4 151.111 291.511 150.361 291.621 149.336C291.934 146.306 292.205 140.886 292.302 136.808C292.357 134.205 292.343 132.151 292.224 131.608C292.219 131.599 292.219 131.589 292.219 131.589C291.893 130.251 281.948 115.227 278.965 109.903C278.418 108.933 278.106 108.285 278.123 108.101C278.233 106.901 280.527 102.64 281.019 102.695C281.102 102.704 281.406 103.086 281.865 103.72C284.169 106.92 290.366 116.593 291.506 117.825C292.573 118.979 298.002 124.694 300.329 127.144C300.986 127.829 301.395 128.261 301.395 128.261C302.655 128.238 303.918 128.123 305.183 127.926C316.359 126.202 327.342 118.377 330.216 116.202C330.689 115.844 330.943 115.641 330.943 115.641C330.943 115.641 332.091 119.165 331.843 120.695Z" fill="#F47920"/>
<path d="M303.953 133.204C300.141 133.82 300.13 128.86 300.328 127.145C300.985 127.83 301.394 128.262 301.394 128.262C302.654 128.239 303.917 128.124 305.182 127.927C305.656 129.881 305.276 132.993 303.953 133.204Z" fill="#C54527"/>
<path d="M307.812 122.571C307.072 123.017 306.106 123.169 304.874 122.851C303.927 122.612 302.818 122.093 301.526 121.214C301.526 121.214 300.505 122.442 300.423 124.694C297.719 122.359 297.062 120.023 299.356 119.163C298.414 115.067 300.423 114.207 303.779 114.005C307.14 113.798 307.917 117.241 309.925 117.159C310.047 118.995 309.527 121.555 307.812 122.571Z" fill="#262166"/>
<path d="M307.812 122.571C307.775 122.902 307.72 123.283 307.642 123.693C307.191 126.089 306.014 129.431 304.24 129.247C304.148 129.243 304.052 129.224 303.95 129.192C302.355 128.691 301.394 127.142 300.893 126.002C300.562 125.262 300.424 124.696 300.424 124.696C300.451 123.984 300.57 123.372 300.723 122.871C301.049 121.79 301.527 121.216 301.527 121.216C302.819 122.094 303.927 122.614 304.875 122.853C306.106 123.169 307.072 123.017 307.812 122.571Z" fill="url(#paint12_linear_2_31)"/>
<path d="M304.24 130.658C304.221 131.527 304.102 132.207 303.523 132.248C302.35 132.331 300.792 130.8 300.875 129.136C300.902 128.571 300.912 127.969 300.912 127.417C300.912 126.86 300.902 126.355 300.893 126.001C301.394 127.141 302.355 128.69 303.95 129.191C304.052 129.223 304.148 129.242 304.24 129.246C304.235 129.73 304.254 130.217 304.24 130.658Z" fill="url(#paint13_linear_2_31)"/>
<path d="M331.843 120.695C331.788 121.022 331.452 121.582 330.8 122.346C330.831 120.392 330.404 117.427 330.216 116.203C330.689 115.845 330.943 115.642 330.943 115.642C330.943 115.642 332.091 119.165 331.843 120.695Z" fill="#C54527"/>
<path d="M281.864 103.722C280.118 105.216 279.266 108.472 278.964 109.906C278.417 108.936 278.105 108.288 278.122 108.104C278.232 106.904 280.526 102.643 281.018 102.698C281.102 102.706 281.405 103.087 281.864 103.722Z" fill="#C54527"/>
<path d="M309.237 150.969C305.33 151.534 297.978 152.036 291.62 149.337C291.933 146.307 292.204 140.887 292.301 136.809C295.45 138.142 302.249 140.514 309.39 139.769C308.833 143.683 308.989 147.65 309.237 150.969Z" fill="#FCAF17"/>
<path opacity="0.25" d="M308.47 159.705C302.079 163.806 290.043 156.887 289.759 155.792C289.455 154.643 290.632 153.415 291.289 151.447C291.399 151.112 291.51 150.362 291.62 149.337C291.933 146.307 292.204 140.887 292.301 136.809C292.356 134.206 292.342 132.152 292.223 131.609C292.361 132.032 294.522 138.882 295.629 145.548C296.778 152.43 296.53 155.709 299.891 157.92C301.858 159.212 305.449 159.893 308.47 159.705Z" fill="#010101"/>
<path d="M323.075 178.623C323.075 181.464 312.804 197.206 310.677 200.437C310.433 200.81 310.295 201.017 310.295 201.017C310.295 201.017 308.971 200.865 307.881 200.497C307.123 200.234 306.475 199.876 306.475 199.38C306.475 199.278 306.494 199.122 306.526 198.915C306.889 196.722 309.146 188.787 312.043 178.296C310.517 176.439 299.81 169.336 299.81 169.336C299.81 169.336 299.805 169.345 299.8 169.363C299.336 170.434 284.473 204.804 282.785 208.009C282.725 208.124 282.683 208.197 282.656 208.23C281.893 209.214 278.725 209.32 278.505 207.246C278.505 207.242 278.505 207.242 278.505 207.237C277.595 198.549 285.088 172.342 288.578 160.753C289.203 158.675 289.699 157.066 289.998 156.114C291.745 157.824 302.54 163.511 308.471 159.705C308.765 159.516 309.046 159.305 309.313 159.07C309.524 158.882 309.634 158.459 309.671 157.834C309.781 157.953 309.897 158.082 310.011 158.22C314.147 162.95 323.075 175.887 323.075 178.623Z" fill="#3498db"/>
<path d="M283.832 212.818C283.423 214.864 272.605 220.928 273.59 217.259C274.39 214.284 277.396 209.094 278.504 207.237C278.504 207.242 278.504 207.242 278.504 207.246C278.725 209.32 281.893 209.215 282.655 208.23C282.682 208.198 282.724 208.125 282.784 208.009C283.336 209.591 284.099 211.494 283.832 212.818Z" fill="#262166"/>
<path d="M314.23 211.015C313.407 211.425 302.759 207.328 303.003 205.935C303.251 204.542 306.524 198.915 306.524 198.915C306.492 199.122 306.473 199.278 306.473 199.38C306.473 200.579 310.293 201.017 310.293 201.017C310.293 201.017 310.431 200.81 310.675 200.437C311.15 204.69 314.998 210.63 314.23 211.015Z" fill="#262166"/>
<path opacity="0.25" d="M298.416 168.163C298.416 168.163 286.617 191.334 282.192 207.237" stroke="#010101" stroke-width="0.4597" stroke-miterlimit="10"/>
<path opacity="0.25" d="M301.201 168.163C301.201 168.163 314.31 176.766 314.803 178.159C315.294 179.552 308.002 198.916 308.002 198.916" stroke="#010101" stroke-width="0.4597" stroke-miterlimit="10"/>
<path opacity="0.25" d="M310.01 158.219C308.567 163.984 300.208 162.417 295.933 161.309C293.446 160.665 290.595 160.642 288.578 160.752C289.203 158.674 289.699 157.065 289.998 156.113C291.745 157.823 302.54 163.51 308.471 159.704C308.765 159.515 309.046 159.304 309.313 159.069C309.524 158.881 309.634 158.458 309.671 157.833C309.78 157.953 309.895 158.082 310.01 158.219Z" fill="#010101"/>
<path opacity="0.25" d="M307.881 200.498C307.123 200.235 306.475 199.877 306.475 199.381C306.475 199.279 306.494 199.123 306.526 198.916C306.889 196.723 309.146 188.788 312.043 178.297C310.517 176.44 299.81 169.337 299.81 169.337C299.81 169.337 300.683 166.39 301.667 166.17C302.65 165.954 314.011 175.728 315.266 177.751C316.373 179.528 308.636 194.038 307.881 200.498Z" fill="#010101"/>
<path opacity="0.25" d="M307.812 122.571C307.775 122.902 307.72 123.283 307.642 123.693C304.778 125.151 301.968 121.868 301.633 121.909C301.44 121.932 301.044 122.429 300.723 122.87C301.049 121.789 301.527 121.215 301.527 121.215C302.819 122.093 303.927 122.613 304.875 122.852C306.106 123.169 307.072 123.017 307.812 122.571Z" fill="#010101"/>
<path opacity="0.25" d="M304.24 130.658C302.35 130.198 301.306 128.304 300.912 127.417C300.912 126.86 300.902 126.355 300.893 126.001C301.394 127.141 302.355 128.69 303.95 129.191C304.052 129.223 304.148 129.242 304.24 129.246C304.235 129.73 304.254 130.217 304.24 130.658Z" fill="#010101"/>
<path opacity="0.25" d="M309.39 139.77C308.949 142.882 308.957 146.027 309.105 148.854C308.36 145.714 307.708 142.339 308.47 140.386C309.784 137.021 309.927 136.865 309.946 136.865C309.711 137.821 309.527 138.795 309.39 139.77Z" fill="#010101"/>
<path d="M217.404 171.12L182.032 165.042L181.977 165.359L103.862 253.307L102.249 275.292L113.453 277.218L132.845 280.551L158.875 285.025L161.349 285.448L159.487 296.293L158.623 301.31L155.777 317.883L178.8 321.841L191.15 323.961L196.721 291.526L212.26 294.192L216.949 266.897L201.41 264.231L217.404 171.12ZM173.247 216.188L166.033 258.153L157.404 256.668L138.531 253.428L148.981 240.955L151.372 238.1L171.297 214.318L174.115 211.128L173.247 216.188Z" fill="#3498db"/>
<path opacity="0.25" d="M158.875 285.025L132.845 280.551C135.911 270.423 139.737 256.465 138.532 253.427L157.405 256.667C158.614 258.682 159.57 261.453 159.828 265.256C160.287 271.987 159.284 278.86 158.875 285.025Z" fill="#010101"/>
<path d="M139.658 253.623C139.658 253.623 142.496 249.685 148.887 250.915C155.278 252.145 155.77 260.011 152.984 268.696C150.198 277.381 149.543 307.696 150.853 317.528C152.165 327.36 151.345 331.949 148.232 332.276C145.119 332.604 143.643 320.477 145.446 311.957C147.249 303.436 147.085 295.57 144.135 296.881C141.185 298.193 143.643 301.47 142.168 304.419C140.693 307.368 136.269 305.566 136.433 299.994C136.597 294.422 145.506 258.213 139.658 253.623Z" fill="#3498db"/>
<path opacity="0.25" d="M201.41 264.231L216.949 266.897L212.26 294.192L196.721 291.526L191.149 323.961L178.8 321.84L200.505 186.411L217.404 171.12L201.41 264.231Z" fill="#010101"/>
<path d="M190.837 -31V180.086" stroke="#0A2533" stroke-width="0.9195" stroke-miterlimit="10"/>
<path d="M250.32 138.001C253.849 138.001 256.711 135.14 256.711 131.61C256.711 128.08 253.849 125.219 250.32 125.219C246.79 125.219 243.929 128.08 243.929 131.61C243.929 135.14 246.79 138.001 250.32 138.001Z" fill="#F47920"/>
<path d="M472.68 219.217C476.209 219.217 479.071 216.356 479.071 212.826C479.071 209.296 476.209 206.435 472.68 206.435C469.15 206.435 466.289 209.296 466.289 212.826C466.289 216.356 469.15 219.217 472.68 219.217Z" fill="#3498db"/>
<path d="M138.532 172.556C142.061 172.556 144.923 169.695 144.923 166.165C144.923 162.635 142.061 159.774 138.532 159.774C135.002 159.774 132.141 162.635 132.141 166.165C132.141 169.695 135.002 172.556 138.532 172.556Z" fill="#3498db"/>
<path d="M243.93 367.999C247.459 367.999 250.321 365.138 250.321 361.608C250.321 358.078 247.459 355.217 243.93 355.217C240.4 355.217 237.539 358.078 237.539 361.608C237.539 365.138 240.4 367.999 243.93 367.999Z" fill="#4ADE80"/>
<path d="M436.146 153.313C437.507 153.313 438.611 152.209 438.611 150.848C438.611 149.487 437.507 148.383 436.146 148.383C434.784 148.383 433.681 149.487 433.681 150.848C433.681 152.209 434.784 153.313 436.146 153.313Z" fill="#F47920"/>
<path d="M247.855 191.696C249.216 191.696 250.32 190.592 250.32 189.231C250.32 187.87 249.216 186.766 247.855 186.766C246.493 186.766 245.39 187.87 245.39 189.231C245.39 190.592 246.493 191.696 247.855 191.696Z" fill="#3498db"/>
<path d="M174.115 158.32C175.476 158.32 176.58 157.216 176.58 155.855C176.58 154.494 175.476 153.39 174.115 153.39C172.753 153.39 171.65 154.494 171.65 155.855C171.65 157.216 172.753 158.32 174.115 158.32Z" fill="#3498db"/>
</g>
<defs>
<linearGradient id="paint0_linear_2_31" x1="395.103" y1="244.517" x2="401.553" y2="360.244" gradientUnits="userSpaceOnUse">
<stop stop-color="#FCAF17"/>
<stop offset="1" stop-color="#F47920"/>
</linearGradient>
<linearGradient id="paint1_linear_2_31" x1="99.4107" y1="203.553" x2="100.312" y2="195.031" gradientUnits="userSpaceOnUse">
<stop stop-color="#FBC4AF"/>
<stop offset="1" stop-color="#EA8B69"/>
</linearGradient>
<linearGradient id="paint2_linear_2_31" x1="110.768" y1="200.703" x2="102.902" y2="201.276" gradientUnits="userSpaceOnUse">
<stop stop-color="#FBC4AF"/>
<stop offset="1" stop-color="#EA8B69"/>
</linearGradient>
<linearGradient id="paint3_linear_2_31" x1="100.47" y1="232.808" x2="107.681" y2="206.917" gradientUnits="userSpaceOnUse">
<stop stop-color="#FBC4AF"/>
<stop offset="1" stop-color="#EA8B69"/>
</linearGradient>
<linearGradient id="paint4_linear_2_31" x1="388.147" y1="137.88" x2="388.475" y2="130.384" gradientUnits="userSpaceOnUse">
<stop stop-color="#FBC4AF"/>
<stop offset="1" stop-color="#EA8B69"/>
</linearGradient>
<linearGradient id="paint5_linear_2_31" x1="389.602" y1="141.069" x2="389.356" y2="135.744" gradientUnits="userSpaceOnUse">
<stop stop-color="#FBC4AF"/>
<stop offset="1" stop-color="#EA8B69"/>
</linearGradient>
<linearGradient id="paint6_linear_2_31" x1="373.166" y1="181.27" x2="379.065" y2="142.925" gradientUnits="userSpaceOnUse">
<stop stop-color="#FBC4AF"/>
<stop offset="1" stop-color="#EA8B69"/>
</linearGradient>
<linearGradient id="paint7_linear_2_31" x1="406.17" y1="135.02" x2="410.758" y2="159.217" gradientUnits="userSpaceOnUse">
<stop stop-color="#FBC4AF"/>
<stop offset="1" stop-color="#EA8B69"/>
</linearGradient>
<linearGradient id="paint8_linear_2_31" x1="276.036" y1="99.3253" x2="278.904" y2="105.421" gradientUnits="userSpaceOnUse">
<stop stop-color="#FBC4AF"/>
<stop offset="1" stop-color="#EA8B69"/>
</linearGradient>
<linearGradient id="paint9_linear_2_31" x1="271.686" y1="99.1744" x2="278.814" y2="102.165" gradientUnits="userSpaceOnUse">
<stop stop-color="#FBC4AF"/>
<stop offset="1" stop-color="#EA8B69"/>
</linearGradient>
<linearGradient id="paint10_linear_2_31" x1="275.777" y1="96.88" x2="280.365" y2="106.63" gradientUnits="userSpaceOnUse">
<stop stop-color="#FBC4AF"/>
<stop offset="1" stop-color="#EA8B69"/>
</linearGradient>
<linearGradient id="paint11_linear_2_31" x1="341.111" y1="106.529" x2="328.084" y2="122.014" gradientUnits="userSpaceOnUse">
<stop stop-color="#FBC4AF"/>
<stop offset="1" stop-color="#EA8B69"/>
</linearGradient>
<linearGradient id="paint12_linear_2_31" x1="304.676" y1="130.133" x2="303.283" y2="113.909" gradientUnits="userSpaceOnUse">
<stop stop-color="#FBC4AF"/>
<stop offset="1" stop-color="#EA8B69"/>
</linearGradient>
<linearGradient id="paint13_linear_2_31" x1="302.294" y1="130.259" x2="302.949" y2="126.08" gradientUnits="userSpaceOnUse">
<stop stop-color="#FBC4AF"/>
<stop offset="1" stop-color="#EA8B69"/>
</linearGradient>
<clipPath id="clip0_2_31">
<rect width="591.837" height="420.775" fill="white"/>
</clipPath>
</defs>
</svg>
