<?xml version="1.0" encoding="UTF-8"?>
<!DOCTYPE svg PUBLIC "-//W3C//DTD SVG 1.1//EN" "http://www.w3.org/Graphics/SVG/1.1/DTD/svg11.dtd">
<svg xmlns="http://www.w3.org/2000/svg" version="1.1" width="779px" height="320px" style="shape-rendering:geometricPrecision; text-rendering:geometricPrecision; image-rendering:optimizeQuality; fill-rule:evenodd; clip-rule:evenodd" xmlns:xlink="http://www.w3.org/1999/xlink">
<g><path style="opacity:0.004" fill="#fefffe" d="M 437.5,1.5 C 438.833,2.16667 438.833,2.16667 437.5,1.5 Z"/></g>
<g><path style="opacity:0.004" fill="#fefffe" d="M 678.5,1.5 C 679.833,2.16667 679.833,2.16667 678.5,1.5 Z"/></g>
<g><path style="opacity:0.004" fill="#fefffe" d="M 555.5,14.5 C 556.833,15.1667 556.833,15.1667 555.5,14.5 Z"/></g>
<g><path style="opacity:0.004" fill="#fefffe" d="M 671.5,18.5 C 672.833,19.1667 672.833,19.1667 671.5,18.5 Z"/></g>
<g><path style="opacity:0.004" fill="#fefffe" d="M 70.5,23.5 C 71.8333,24.1667 71.8333,24.1667 70.5,23.5 Z"/></g>
<g><path style="opacity:0.004" fill="#fefffe" d="M 387.5,24.5 C 388.833,25.1667 388.833,25.1667 387.5,24.5 Z"/></g>
<g><path style="opacity:0.004" fill="#fefffe" d="M 172.5,37.5 C 173.833,38.1667 173.833,38.1667 172.5,37.5 Z"/></g>
<g><path style="opacity:0.004" fill="#fefffe" d="M 80.5,45.5 C 81.8333,46.1667 81.8333,46.1667 80.5,45.5 Z"/></g>
<g><path style="opacity:0.004" fill="#fefffe" d="M 114.5,46.5 C 115.833,47.1667 115.833,47.1667 114.5,46.5 Z"/></g>
<g><path style="opacity:0.004" fill="#fefffe" d="M 141.5,47.5 C 142.833,48.1667 142.833,48.1667 141.5,47.5 Z"/></g>
<g><path style="opacity:0.004" fill="#fefffe" d="M 618.5,52.5 C 619.833,53.1667 619.833,53.1667 618.5,52.5 Z"/></g>
<g><path style="opacity:0.004" fill="#fefffe" d="M 657.5,52.5 C 658.833,53.1667 658.833,53.1667 657.5,52.5 Z"/></g>
<g><path style="opacity:0.004" fill="#fefffe" d="M 124.5,53.5 C 125.833,54.1667 125.833,54.1667 124.5,53.5 Z"/></g>
<g><path style="opacity:0.004" fill="#fefffe" d="M 466.5,62.5 C 467.833,63.1667 467.833,63.1667 466.5,62.5 Z"/></g>
<g><path style="opacity:0.004" fill="#fefffe" d="M 694.5,62.5 C 695.833,63.1667 695.833,63.1667 694.5,62.5 Z"/></g>
<g><path style="opacity:0.004" fill="#fefffe" d="M 370.5,63.5 C 371.833,64.1667 371.833,64.1667 370.5,63.5 Z"/></g>
<g><path style="opacity:0.004" fill="#fefffe" d="M 511.5,68.5 C 512.833,69.1667 512.833,69.1667 511.5,68.5 Z"/></g>
<g><path style="opacity:0.004" fill="#fefffe" d="M 561.5,77.5 C 562.833,78.1667 562.833,78.1667 561.5,77.5 Z"/></g>
<g><path style="opacity:0.004" fill="#fefffe" d="M 512.5,80.5 C 513.833,81.1667 513.833,81.1667 512.5,80.5 Z"/></g>
<g><path style="opacity:0.004" fill="#fefffe" d="M 449.5,81.5 C 450.833,82.1667 450.833,82.1667 449.5,81.5 Z"/></g>
<g><path style="opacity:0.004" fill="#fefffe" d="M 134.5,91.5 C 135.833,92.1667 135.833,92.1667 134.5,91.5 Z"/></g>
<g><path style="opacity:1" fill="#229856" d="M 187.5,96.5 C 190.713,96.19 193.713,96.5233 196.5,97.5C 195.761,97.369 195.094,97.5357 194.5,98C 196.256,98.2022 197.922,98.7022 199.5,99.5C 198.726,100.711 197.893,100.711 197,99.5C 196.5,100 196,100.5 195.5,101C 196.711,102.113 196.711,103.28 195.5,104.5C 192.321,105.589 189.655,107.423 187.5,110C 188.357,110.689 189.023,111.522 189.5,112.5C 187.226,114.713 185.726,117.379 185,120.5C 181.45,122.028 180.284,124.362 181.5,127.5C 180.167,127.5 178.833,127.5 177.5,127.5C 176.883,127.611 176.383,127.944 176,128.5C 175.667,130.5 175.333,132.5 175,134.5C 173.667,135.167 172.667,136.167 172,137.5C 171.51,136.207 171.343,134.873 171.5,133.5C 171.755,128.223 174.422,124.556 179.5,122.5C 176.219,120.412 176.052,118.412 179,116.5C 179.438,112.173 181.271,108.673 184.5,106C 183.552,105.517 182.552,105.351 181.5,105.5C 181.22,102.612 182.553,101.112 185.5,101C 183.19,100.503 180.857,100.337 178.5,100.5C 181.653,99.4117 184.653,98.0784 187.5,96.5 Z"/></g>
<g><path style="opacity:0.004" fill="#fefffe" d="M 260.5,98.5 C 261.833,99.1667 261.833,99.1667 260.5,98.5 Z"/></g>
<g><path style="opacity:1" fill="#2ca966" d="M 205.5,98.5 C 212.04,100.107 218.04,102.773 223.5,106.5C 221.234,106.141 219.401,106.808 218,108.5C 217.329,107.748 216.496,107.414 215.5,107.5C 214.287,105.324 212.62,104.991 210.5,106.5C 209.833,105.5 209.167,104.5 208.5,103.5C 207.269,104.651 207.269,105.817 208.5,107C 205.506,111.465 203.172,116.298 201.5,121.5C 198.655,118.136 198.989,114.97 202.5,112C 200.203,111.982 197.869,112.149 195.5,112.5C 197.125,115.255 196.792,117.755 194.5,120C 195.712,121.107 195.379,121.607 193.5,121.5C 190.592,120.841 190.258,120.007 192.5,119C 191.978,118.439 191.645,117.772 191.5,117C 192.856,115.433 193.523,113.6 193.5,111.5C 190.402,111.587 190.068,111.087 192.5,110C 191.167,109.333 191.167,108.667 192.5,108C 195.328,106.905 197.662,105.071 199.5,102.5C 200.167,102.833 200.833,103.167 201.5,103.5C 202.524,102.147 203.857,101.48 205.5,101.5C 205.5,100.5 205.5,99.5 205.5,98.5 Z"/></g>
<g><path style="opacity:1" fill="#20934f" d="M 177.5,100.5 C 177.833,100.5 178.167,100.5 178.5,100.5C 180.857,100.337 183.19,100.503 185.5,101C 182.553,101.112 181.22,102.612 181.5,105.5C 182.552,105.351 183.552,105.517 184.5,106C 181.271,108.673 179.438,112.173 179,116.5C 176.052,118.412 176.219,120.412 179.5,122.5C 174.422,124.556 171.755,128.223 171.5,133.5C 171.946,130.99 171.28,128.99 169.5,127.5C 168.262,127.19 168.262,126.69 169.5,126C 167.05,124.94 164.717,124.773 162.5,125.5C 161.957,125.44 161.624,125.107 161.5,124.5C 163.291,123.83 164.958,123.163 166.5,122.5C 168.963,122.103 170.963,120.936 172.5,119C 169.694,118.395 167.36,117.062 165.5,115C 168.646,113.721 171.48,112.555 174,111.5C 174.283,109.398 173.45,107.731 171.5,106.5C 172.833,105.833 174.167,105.167 175.5,104.5C 175.291,103.914 174.957,103.414 174.5,103C 175.942,102.623 176.942,101.79 177.5,100.5 Z"/></g>
<g><path style="opacity:0.004" fill="#fefffe" d="M 111.5,108.5 C 112.833,109.167 112.833,109.167 111.5,108.5 Z"/></g>
<g><path style="opacity:1" fill="#2db26c" d="M 215.5,107.5 C 214.325,107.281 213.325,107.614 212.5,108.5C 213.5,109.333 214.5,110.167 215.5,111C 214.016,113.382 212.182,115.549 210,117.5C 209.383,118.449 209.549,119.282 210.5,120C 206.527,122.783 204.861,126.616 205.5,131.5C 203.908,132.602 203.075,131.935 203,129.5C 202.14,134.351 200.64,139.017 198.5,143.5C 197.139,143.788 195.806,144.121 194.5,144.5C 195.055,138.846 195.555,133.18 196,127.5C 199.097,126.711 199.264,125.544 196.5,124C 197.549,123.508 198.549,123.674 199.5,124.5C 200.425,123.643 201.092,122.643 201.5,121.5C 203.172,116.298 205.506,111.465 208.5,107C 207.269,105.817 207.269,104.651 208.5,103.5C 209.167,104.5 209.833,105.5 210.5,106.5C 212.62,104.991 214.287,105.324 215.5,107.5 Z"/></g>
<g><path style="opacity:0.004" fill="#fefffe" d="M 373.5,108.5 C 374.833,109.167 374.833,109.167 373.5,108.5 Z"/></g>
<g><path style="opacity:1" fill="#1b8746" d="M 177.5,100.5 C 176.942,101.79 175.942,102.623 174.5,103C 174.957,103.414 175.291,103.914 175.5,104.5C 174.167,105.167 172.833,105.833 171.5,106.5C 173.45,107.731 174.283,109.398 174,111.5C 171.48,112.555 168.646,113.721 165.5,115C 167.36,117.062 169.694,118.395 172.5,119C 170.963,120.936 168.963,122.103 166.5,122.5C 161.358,120.132 158.525,121.799 158,127.5C 157.667,126.5 157.333,125.5 157,124.5C 156.802,126.382 156.302,128.048 155.5,129.5C 153.867,125.656 155.034,122.323 159,119.5C 158.687,114.579 160.854,111.745 165.5,111C 163.651,109.907 161.984,108.574 160.5,107C 163.003,106.987 165.503,106.154 168,104.5C 168.914,105.654 169.747,105.487 170.5,104C 169.185,102.605 169.519,101.605 171.5,101C 173.473,100.505 175.473,100.338 177.5,100.5 Z"/></g>
<g><path style="opacity:0.004" fill="#fefffe" d="M 745.5,109.5 C 746.833,110.167 746.833,110.167 745.5,109.5 Z"/></g>
<g><path style="opacity:1" fill="#33b26a" d="M 201.5,121.5 C 201.092,122.643 200.425,123.643 199.5,124.5C 198.549,123.674 197.549,123.508 196.5,124C 199.264,125.544 199.097,126.711 196,127.5C 195.555,133.18 195.055,138.846 194.5,144.5C 193.562,147.089 193.229,149.589 193.5,152C 193.974,153.729 194.974,154.895 196.5,155.5C 199.57,155.368 202.57,155.701 205.5,156.5C 212.354,156.176 219.021,156.509 225.5,157.5C 214.167,157.5 202.833,157.5 191.5,157.5C 191.313,151.788 191.646,146.121 192.5,140.5C 194.044,134.864 195.044,129.031 195.5,123C 194.584,122.722 193.918,122.222 193.5,121.5C 195.379,121.607 195.712,121.107 194.5,120C 196.792,117.755 197.125,115.255 195.5,112.5C 197.869,112.149 200.203,111.982 202.5,112C 198.989,114.97 198.655,118.136 201.5,121.5 Z"/></g>
<g><path style="opacity:1" fill="#32b973" d="M 223.5,106.5 C 227.238,108.697 230.571,111.364 233.5,114.5C 230.507,113.535 227.84,112.202 225.5,110.5C 223.483,109.126 221.483,109.293 219.5,111C 219.957,111.414 220.291,111.914 220.5,112.5C 219.568,114.795 218.735,117.129 218,119.5C 214.323,127.409 209.823,134.742 204.5,141.5C 204.083,138.921 204.75,136.754 206.5,135C 205.663,133.989 205.33,132.822 205.5,131.5C 204.861,126.616 206.527,122.783 210.5,120C 209.549,119.282 209.383,118.449 210,117.5C 212.182,115.549 214.016,113.382 215.5,111C 214.5,110.167 213.5,109.333 212.5,108.5C 213.325,107.614 214.325,107.281 215.5,107.5C 216.496,107.414 217.329,107.748 218,108.5C 219.401,106.808 221.234,106.141 223.5,106.5 Z"/></g>
<g><path style="opacity:0.004" fill="#fefffe" d="M 13.5,112.5 C 14.8333,113.167 14.8333,113.167 13.5,112.5 Z"/></g>
<g><path style="opacity:0.004" fill="#fefffe" d="M 78.5,113.5 C 79.8333,114.167 79.8333,114.167 78.5,113.5 Z"/></g>
<g><path style="opacity:0.004" fill="#fefffe" d="M 388.5,113.5 C 389.833,114.167 389.833,114.167 388.5,113.5 Z"/></g>
<g><path style="opacity:1" fill="#36ca81" d="M 235.5,122.5 C 235.565,122.938 235.399,123.272 235,123.5C 234.581,122.328 233.915,121.328 233,120.5C 229.878,126.698 227.044,133.031 224.5,139.5C 223.758,140.287 222.925,140.953 222,141.5C 221.849,144.119 221.015,146.453 219.5,148.5C 220.55,151.003 219.55,152.503 216.5,153C 218.873,154.377 221.206,154.877 223.5,154.5C 223.5,154.833 223.5,155.167 223.5,155.5C 220.5,155.5 217.5,155.5 214.5,155.5C 214.423,154.25 213.756,153.417 212.5,153C 216.5,151.667 216.5,150.333 212.5,149C 216.719,142.715 220.386,136.048 223.5,129C 222.663,127.989 222.33,126.822 222.5,125.5C 223.5,125.5 224.5,125.5 225.5,125.5C 226.006,121.939 226.506,118.605 227,115.5C 229.519,115.175 232.019,115.675 234.5,117C 235.406,118.699 235.739,120.533 235.5,122.5 Z"/></g>
<g><path style="opacity:1" fill="#35c37c" d="M 225.5,110.5 C 227.84,112.202 230.507,113.535 233.5,114.5C 237.3,116.963 239.967,120.296 241.5,124.5C 241.167,124.5 240.833,124.5 240.5,124.5C 239.22,123.069 237.553,122.402 235.5,122.5C 235.739,120.533 235.406,118.699 234.5,117C 232.019,115.675 229.519,115.175 227,115.5C 226.506,118.605 226.006,121.939 225.5,125.5C 224.5,125.5 223.5,125.5 222.5,125.5C 218.316,131.82 215.149,138.82 213,146.5C 211.644,147.38 210.144,147.714 208.5,147.5C 213.332,137.514 217.832,127.514 222,117.5C 225.879,117.012 226.379,115.012 223.5,111.5C 223.957,110.702 224.624,110.369 225.5,110.5 Z"/></g>
<g><path style="opacity:1" fill="#2ba260" d="M 196.5,97.5 C 199.57,97.3677 202.57,97.701 205.5,98.5C 205.5,99.5 205.5,100.5 205.5,101.5C 203.857,101.48 202.524,102.147 201.5,103.5C 200.833,103.167 200.167,102.833 199.5,102.5C 197.662,105.071 195.328,106.905 192.5,108C 191.167,108.667 191.167,109.333 192.5,110C 190.068,111.087 190.402,111.587 193.5,111.5C 193.523,113.6 192.856,115.433 191.5,117C 191.645,117.772 191.978,118.439 192.5,119C 190.258,120.007 190.592,120.841 193.5,121.5C 193.918,122.222 194.584,122.722 195.5,123C 195.044,129.031 194.044,134.864 192.5,140.5C 192.5,134.833 192.5,129.167 192.5,123.5C 190.167,123.5 187.833,123.5 185.5,123.5C 185.358,135.518 185.691,147.518 186.5,159.5C 185.033,162.258 184.367,161.925 184.5,158.5C 184.666,152.158 184.5,145.825 184,139.5C 183.583,138.244 182.75,137.577 181.5,137.5C 181.5,134.5 181.5,131.5 181.5,128.5C 180.167,128.5 178.833,128.5 177.5,128.5C 177.5,128.167 177.5,127.833 177.5,127.5C 178.833,127.5 180.167,127.5 181.5,127.5C 180.284,124.362 181.45,122.028 185,120.5C 185.726,117.379 187.226,114.713 189.5,112.5C 189.023,111.522 188.357,110.689 187.5,110C 189.655,107.423 192.321,105.589 195.5,104.5C 196.711,103.28 196.711,102.113 195.5,101C 196,100.5 196.5,100 197,99.5C 197.893,100.711 198.726,100.711 199.5,99.5C 197.922,98.7022 196.256,98.2022 194.5,98C 195.094,97.5357 195.761,97.369 196.5,97.5 Z"/></g>
<g><path style="opacity:0.004" fill="#fefffe" d="M 416.5,117.5 C 417.833,118.167 417.833,118.167 416.5,117.5 Z"/></g>
<g><path style="opacity:1" fill="#167539" d="M 160.5,104.5 C 158.127,107.499 155.127,109.832 151.5,111.5C 150.881,114.032 149.881,116.365 148.5,118.5C 149.737,119.281 150.737,120.281 151.5,121.5C 150.147,122.524 149.48,123.857 149.5,125.5C 147.944,126.291 146.61,126.624 145.5,126.5C 146.025,127.192 146.692,127.692 147.5,128C 144.648,134.579 141.815,141.079 139,147.5C 137.994,143.996 136.494,140.662 134.5,137.5C 133.817,137.863 133.15,138.196 132.5,138.5C 132.5,137.167 132.5,135.833 132.5,134.5C 138.05,120.951 147.383,110.951 160.5,104.5 Z"/></g>
<g><path style="opacity:1" fill="#197f41" d="M 187.5,96.5 C 184.653,98.0784 181.653,99.4117 178.5,100.5C 178.167,100.5 177.833,100.5 177.5,100.5C 175.473,100.338 173.473,100.505 171.5,101C 169.519,101.605 169.185,102.605 170.5,104C 169.747,105.487 168.914,105.654 168,104.5C 165.503,106.154 163.003,106.987 160.5,107C 161.984,108.574 163.651,109.907 165.5,111C 160.854,111.745 158.687,114.579 159,119.5C 155.034,122.323 153.867,125.656 155.5,129.5C 154.833,129.5 154.167,129.5 153.5,129.5C 152.526,130.635 151.359,131.635 150,132.5C 149.768,131.263 149.268,130.263 148.5,129.5C 148.833,128.167 149.167,126.833 149.5,125.5C 149.48,123.857 150.147,122.524 151.5,121.5C 150.737,120.281 149.737,119.281 148.5,118.5C 149.881,116.365 150.881,114.032 151.5,111.5C 155.127,109.832 158.127,107.499 160.5,104.5C 168.709,99.5265 177.709,96.8598 187.5,96.5 Z"/></g>
<g><path style="opacity:0.004" fill="#fefffe" d="M 128.5,122.5 C 129.833,123.167 129.833,123.167 128.5,122.5 Z"/></g>
<g><path style="opacity:1" fill="#1f8e49" d="M 166.5,122.5 C 164.958,123.163 163.291,123.83 161.5,124.5C 161.624,125.107 161.957,125.44 162.5,125.5C 163.312,142.153 163.645,158.82 163.5,175.5C 161.656,173.721 160.99,171.388 161.5,168.5C 161.5,163.833 161.5,159.167 161.5,154.5C 161.5,149.167 161.5,143.833 161.5,138.5C 161.97,135.654 161.137,133.321 159,131.5C 154.614,138.718 151.28,146.384 149,154.5C 147.799,156.909 146.133,158.909 144,160.5C 143.56,162.866 143.06,165.199 142.5,167.5C 141.734,169.684 141.067,172.018 140.5,174.5C 133.792,175.264 131.959,178.264 135,183.5C 135.005,180.771 136.171,178.771 138.5,177.5C 138.833,177.833 139.167,178.167 139.5,178.5C 136.966,181.578 136.966,184.578 139.5,187.5C 138.726,188.711 137.893,188.711 137,187.5C 136.833,188.167 136.667,188.833 136.5,189.5C 137.767,191.703 138.767,194.037 139.5,196.5C 133.404,189.302 129.738,180.969 128.5,171.5C 129.496,171.414 130.329,171.748 131,172.5C 131.333,174.5 131.667,176.5 132,178.5C 132.304,176.559 133.137,174.893 134.5,173.5C 133.422,171.102 133.422,168.435 134.5,165.5C 135.5,165.5 136.5,165.5 137.5,165.5C 140.562,163.377 142.062,160.377 142,156.5C 144.132,152.09 146.632,147.923 149.5,144C 149.043,143.586 148.709,143.086 148.5,142.5C 151.571,138.694 153.238,134.361 153.5,129.5C 154.167,129.5 154.833,129.5 155.5,129.5C 156.302,128.048 156.802,126.382 157,124.5C 157.333,125.5 157.667,126.5 158,127.5C 158.525,121.799 161.358,120.132 166.5,122.5 Z"/></g>
<g><path style="opacity:1" fill="#32bf77" d="M 225.5,110.5 C 224.624,110.369 223.957,110.702 223.5,111.5C 226.379,115.012 225.879,117.012 222,117.5C 217.832,127.514 213.332,137.514 208.5,147.5C 207.504,147.414 206.671,147.748 206,148.5C 205.837,150.676 205.004,152.509 203.5,154C 205.708,154.191 207.708,154.691 209.5,155.5C 207.901,155.232 206.568,155.566 205.5,156.5C 202.57,155.701 199.57,155.368 196.5,155.5C 197.609,154.71 198.942,154.21 200.5,154C 199.833,153 199.167,152 198.5,151C 199.337,149.989 199.67,148.822 199.5,147.5C 204.533,148.062 206.199,146.062 204.5,141.5C 209.823,134.742 214.323,127.409 218,119.5C 218.735,117.129 219.568,114.795 220.5,112.5C 220.291,111.914 219.957,111.414 219.5,111C 221.483,109.293 223.483,109.126 225.5,110.5 Z"/></g>
<g><path style="opacity:1" fill="#34c57c" d="M 222.5,125.5 C 222.33,126.822 222.663,127.989 223.5,129C 220.386,136.048 216.719,142.715 212.5,149C 216.5,150.333 216.5,151.667 212.5,153C 213.756,153.417 214.423,154.25 214.5,155.5C 212.833,155.5 211.167,155.5 209.5,155.5C 207.708,154.691 205.708,154.191 203.5,154C 205.004,152.509 205.837,150.676 206,148.5C 206.671,147.748 207.504,147.414 208.5,147.5C 210.144,147.714 211.644,147.38 213,146.5C 215.149,138.82 218.316,131.82 222.5,125.5 Z"/></g>
<g><path style="opacity:1" fill="#39d087" d="M 235.5,122.5 C 237.553,122.402 239.22,123.069 240.5,124.5C 239.504,124.414 238.671,124.748 238,125.5C 238.121,128.921 236.788,131.588 234,133.5C 232.536,138.424 230.536,143.091 228,147.5C 227.052,149.57 225.552,151.07 223.5,152C 224.774,152.977 224.774,153.811 223.5,154.5C 221.206,154.877 218.873,154.377 216.5,153C 219.55,152.503 220.55,151.003 219.5,148.5C 221.015,146.453 221.849,144.119 222,141.5C 222.925,140.953 223.758,140.287 224.5,139.5C 227.044,133.031 229.878,126.698 233,120.5C 233.915,121.328 234.581,122.328 235,123.5C 235.399,123.272 235.565,122.938 235.5,122.5 Z"/></g>
<g><path style="opacity:0.004" fill="#fefffe" d="M 363.5,126.5 C 364.833,127.167 364.833,127.167 363.5,126.5 Z"/></g>
<g><path style="opacity:1" fill="#0e3420" d="M 427.5,160.5 C 427.5,161.5 427.5,162.5 427.5,163.5C 425.352,163.611 425.019,162.944 426.5,161.5C 425.865,157.633 425.199,153.8 424.5,150C 424.325,146.365 424.991,142.698 426.5,139C 425.77,132.831 424.77,126.665 423.5,120.5C 422.328,120.919 421.328,121.585 420.5,122.5C 422.012,126.676 422.679,131.01 422.5,135.5C 421.167,146.171 421.167,156.838 422.5,167.5C 421.833,167.5 421.5,167.833 421.5,168.5C 419.835,153.707 419.001,138.707 419,123.5C 418.5,122.333 417.667,121.5 416.5,121C 417.416,120.722 418.082,120.222 418.5,119.5C 421.219,118.087 424.219,117.42 427.5,117.5C 427.5,131.833 427.5,146.167 427.5,160.5 Z"/></g>
<g><path style="opacity:0.004" fill="#fefffe" d="M 610.5,126.5 C 611.833,127.167 611.833,127.167 610.5,126.5 Z"/></g>
<g><path style="opacity:1" fill="#3ed58d" d="M 240.5,124.5 C 240.833,124.5 241.167,124.5 241.5,124.5C 243.95,126.629 245.617,129.296 246.5,132.5C 245.5,132.5 244.5,132.5 243.5,132.5C 243.769,130.571 243.269,128.905 242,127.5C 239.321,133.994 235.821,140.494 231.5,147C 232.056,147.383 232.389,147.883 232.5,148.5C 232.703,150.39 232.037,151.89 230.5,153C 230.833,153.333 231.167,153.667 231.5,154C 228.417,155.03 227.75,157.03 229.5,160C 229.392,161.681 228.725,162.848 227.5,163.5C 227.663,161.143 227.497,158.81 227,156.5C 225.989,155.663 224.822,155.33 223.5,155.5C 223.5,155.167 223.5,154.833 223.5,154.5C 224.774,153.811 224.774,152.977 223.5,152C 225.552,151.07 227.052,149.57 228,147.5C 230.536,143.091 232.536,138.424 234,133.5C 236.788,131.588 238.121,128.921 238,125.5C 238.671,124.748 239.504,124.414 240.5,124.5 Z"/></g>
<g><path style="opacity:0.004" fill="#fefffe" d="M 698.5,128.5 C 699.833,129.167 699.833,129.167 698.5,128.5 Z"/></g>
<g><path style="opacity:1" fill="#198242" d="M 148.5,129.5 C 149.268,130.263 149.768,131.263 150,132.5C 151.359,131.635 152.526,130.635 153.5,129.5C 153.238,134.361 151.571,138.694 148.5,142.5C 148.709,143.086 149.043,143.586 149.5,144C 146.632,147.923 144.132,152.09 142,156.5C 142.062,160.377 140.562,163.377 137.5,165.5C 137.466,161.284 138.799,157.617 141.5,154.5C 140.391,153.035 140.891,152.035 143,151.5C 143.45,149.481 144.283,147.648 145.5,146C 145.043,145.586 144.709,145.086 144.5,144.5C 145.601,142.358 146.601,140.192 147.5,138C 146.692,137.692 146.025,137.192 145.5,136.5C 146.908,135.757 148.241,134.923 149.5,134C 148.692,133.692 148.025,133.192 147.5,132.5C 148.127,131.583 148.461,130.583 148.5,129.5 Z"/></g>
<g><path style="opacity:1" fill="#1b8b49" d="M 161.5,138.5 C 160.778,138.082 160.278,137.416 160,136.5C 159.601,136.728 159.435,137.062 159.5,137.5C 153.685,148.069 148.518,159.069 144,170.5C 143.768,169.263 143.268,168.263 142.5,167.5C 143.06,165.199 143.56,162.866 144,160.5C 146.133,158.909 147.799,156.909 149,154.5C 151.28,146.384 154.614,138.718 159,131.5C 161.137,133.321 161.97,135.654 161.5,138.5 Z"/></g>
<g><path style="opacity:0.004" fill="#fefffe" d="M 765.5,131.5 C 766.833,132.167 766.833,132.167 765.5,131.5 Z"/></g>
<g><path style="opacity:1" fill="#42dc93" d="M 246.5,132.5 C 250.466,140.303 252.799,148.636 253.5,157.5C 252.85,157.804 252.183,158.137 251.5,158.5C 250.225,154.922 249.225,151.255 248.5,147.5C 247.833,150.833 247.167,154.167 246.5,157.5C 245.541,153.204 244.875,148.871 244.5,144.5C 245.5,144.5 246.5,144.5 247.5,144.5C 246.737,134.724 244.403,134.224 240.5,143C 241.31,145.783 241.31,148.617 240.5,151.5C 238.833,151.5 237.167,151.5 235.5,151.5C 234.833,150.167 233.833,149.167 232.5,148.5C 232.389,147.883 232.056,147.383 231.5,147C 235.821,140.494 239.321,133.994 242,127.5C 243.269,128.905 243.769,130.571 243.5,132.5C 244.5,132.5 245.5,132.5 246.5,132.5 Z"/></g>
<g><path style="opacity:0.987" fill="#0e301e" d="M 347.5,194.5 C 347.5,193.833 347.167,193.5 346.5,193.5C 346.5,192.833 346.167,192.5 345.5,192.5C 345.5,192.167 345.5,191.833 345.5,191.5C 345.167,190.167 344.833,190.167 344.5,191.5C 343.21,190.942 342.377,189.942 342,188.5C 341.008,178.855 340.175,169.188 339.5,159.5C 338.575,160.641 337.741,160.641 337,159.5C 336.667,167.5 336.333,175.5 336,183.5C 335.802,185.382 335.302,187.048 334.5,188.5C 334.5,175.833 334.5,163.167 334.5,150.5C 326.5,149.5 326.5,148.5 334.5,147.5C 334.172,142.125 334.505,136.792 335.5,131.5C 338.084,130.607 340.751,130.274 343.5,130.5C 343.5,136.167 343.5,141.833 343.5,147.5C 347.833,147.5 352.167,147.5 356.5,147.5C 356.5,148.5 356.5,149.5 356.5,150.5C 352.167,150.5 347.833,150.5 343.5,150.5C 343.333,163.171 343.5,175.838 344,188.5C 344.333,186.833 344.667,185.167 345,183.5C 345.413,186.232 346.08,188.899 347,191.5C 347.903,192.701 349.069,193.535 350.5,194C 349.552,194.483 348.552,194.649 347.5,194.5 Z"/></g>
<g><path style="opacity:1" fill="#2aa358" d="M 169.5,127.5 C 171.28,128.99 171.946,130.99 171.5,133.5C 171.343,134.873 171.51,136.207 172,137.5C 172.667,136.167 173.667,135.167 175,134.5C 175.333,132.5 175.667,130.5 176,128.5C 176.383,127.944 176.883,127.611 177.5,127.5C 177.5,127.833 177.5,128.167 177.5,128.5C 177.883,133.52 176.383,137.853 173,141.5C 172.911,145.028 172.244,148.362 171,151.5C 170.501,155.486 170.334,159.486 170.5,163.5C 169.974,167.312 169.307,170.979 168.5,174.5C 168.422,158.822 168.755,143.155 169.5,127.5 Z"/></g>
<g><path style="opacity:0.004" fill="#fefffe" d="M 729.5,135.5 C 730.833,136.167 730.833,136.167 729.5,135.5 Z"/></g>
<g><path style="opacity:1" fill="#177e3f" d="M 149.5,125.5 C 149.167,126.833 148.833,128.167 148.5,129.5C 148.461,130.583 148.127,131.583 147.5,132.5C 148.025,133.192 148.692,133.692 149.5,134C 148.241,134.923 146.908,135.757 145.5,136.5C 146.025,137.192 146.692,137.692 147.5,138C 146.601,140.192 145.601,142.358 144.5,144.5C 144.709,145.086 145.043,145.586 145.5,146C 144.283,147.648 143.45,149.481 143,151.5C 140.891,152.035 140.391,153.035 141.5,154.5C 138.799,157.617 137.466,161.284 137.5,165.5C 136.5,165.5 135.5,165.5 134.5,165.5C 133.422,168.435 133.422,171.102 134.5,173.5C 133.137,174.893 132.304,176.559 132,178.5C 131.667,176.5 131.333,174.5 131,172.5C 130.329,171.748 129.496,171.414 128.5,171.5C 129.472,167.429 131.305,163.762 134,160.5C 134.436,158.153 134.936,155.819 135.5,153.5C 134.997,149.5 133.663,145.5 131.5,141.5C 132.127,140.583 132.461,139.583 132.5,138.5C 133.15,138.196 133.817,137.863 134.5,137.5C 136.494,140.662 137.994,143.996 139,147.5C 141.815,141.079 144.648,134.579 147.5,128C 146.692,127.692 146.025,127.192 145.5,126.5C 146.61,126.624 147.944,126.291 149.5,125.5 Z"/></g>
<g><path style="opacity:1" fill="#1d8d4c" d="M 159.5,137.5 C 159.662,139.527 159.495,141.527 159,143.5C 153.687,156.431 148.021,169.097 142,181.5C 141.253,184.924 141.42,188.257 142.5,191.5C 141.722,192.156 141.056,192.989 140.5,194C 141.148,195.44 141.481,196.94 141.5,198.5C 141.167,198.5 140.833,198.5 140.5,198.5C 140.167,197.833 139.833,197.167 139.5,196.5C 138.767,194.037 137.767,191.703 136.5,189.5C 136.667,188.833 136.833,188.167 137,187.5C 137.893,188.711 138.726,188.711 139.5,187.5C 136.966,184.578 136.966,181.578 139.5,178.5C 139.167,178.167 138.833,177.833 138.5,177.5C 136.171,178.771 135.005,180.771 135,183.5C 131.959,178.264 133.792,175.264 140.5,174.5C 141.067,172.018 141.734,169.684 142.5,167.5C 143.268,168.263 143.768,169.263 144,170.5C 148.518,159.069 153.685,148.069 159.5,137.5 Z"/></g>
<g><path style="opacity:1" fill="#32a768" d="M 181.5,137.5 C 182.75,137.577 183.583,138.244 184,139.5C 184.5,145.825 184.666,152.158 184.5,158.5C 183.677,155.023 183.177,151.356 183,147.5C 181.834,150.503 180.167,153.17 178,155.5C 178.121,158.921 176.788,161.588 174,163.5C 173.164,168.513 172.331,173.513 171.5,178.5C 175.167,178.5 178.833,178.5 182.5,178.5C 185.833,178.5 189.167,178.5 192.5,178.5C 194.833,178.5 197.167,178.5 199.5,178.5C 206.833,179.167 214.167,179.833 221.5,180.5C 204.163,180.667 186.83,180.5 169.5,180C 168.594,178.301 168.261,176.467 168.5,174.5C 169.307,170.979 169.974,167.312 170.5,163.5C 174.744,155.019 178.411,146.353 181.5,137.5 Z"/></g>
<g><path style="opacity:1" fill="#1e9250" d="M 161.5,138.5 C 161.5,143.833 161.5,149.167 161.5,154.5C 157.112,155.614 155.612,158.28 157,162.5C 154.634,166.316 152.467,170.15 150.5,174C 150.645,174.772 150.978,175.439 151.5,176C 149.257,180.906 146.924,185.739 144.5,190.5C 144.043,191.298 143.376,191.631 142.5,191.5C 141.42,188.257 141.253,184.924 142,181.5C 148.021,169.097 153.687,156.431 159,143.5C 159.495,141.527 159.662,139.527 159.5,137.5C 159.435,137.062 159.601,136.728 160,136.5C 160.278,137.416 160.778,138.082 161.5,138.5 Z"/></g>
<g><path style="opacity:1" fill="#0e2f1c" d="M 630.5,130.5 C 632.831,130.498 634.831,131.331 636.5,133C 634.73,136.992 634.23,141.159 635,145.5C 635.333,144.167 635.667,142.833 636,141.5C 636.863,143.749 636.363,145.582 634.5,147C 638.821,147.499 643.154,147.666 647.5,147.5C 647.5,148.5 647.5,149.5 647.5,150.5C 643.154,150.334 638.821,150.501 634.5,151C 635.658,152.009 636.325,153.342 636.5,155C 636.071,157.583 635.404,160.083 634.5,162.5C 635.104,170.862 635.77,179.196 636.5,187.5C 636.291,188.086 635.957,188.586 635.5,189C 637.053,190.097 638.386,191.43 639.5,193C 638.906,193.464 638.239,193.631 637.5,193.5C 637.5,192.833 637.167,192.5 636.5,192.5C 636.167,191.167 635.833,191.167 635.5,192.5C 634.08,190.114 633.08,187.447 632.5,184.5C 631.196,175.804 631.196,167.137 632.5,158.5C 631.342,156.6 630.675,154.933 630.5,153.5C 629.824,154.602 629.158,155.602 628.5,156.5C 628.411,153.216 627.078,150.716 624.5,149C 625.849,148.228 626.682,147.061 627,145.5C 627.499,140.845 627.666,136.179 627.5,131.5C 628.791,131.737 629.791,131.404 630.5,130.5 Z"/></g>
<g><path style="opacity:1" fill="#41e195" d="M 253.5,157.5 C 253.5,158.5 253.5,159.5 253.5,160.5C 252.25,160.577 251.417,161.244 251,162.5C 250.819,167.264 249.652,171.597 247.5,175.5C 246.167,175.5 244.833,175.5 243.5,175.5C 243.826,171.116 243.492,166.783 242.5,162.5C 241.914,162.709 241.414,163.043 241,163.5C 240.066,162.142 239.232,160.808 238.5,159.5C 237.026,157.021 236.026,154.354 235.5,151.5C 237.167,151.5 238.833,151.5 240.5,151.5C 241.31,148.617 241.31,145.783 240.5,143C 244.403,134.224 246.737,134.724 247.5,144.5C 246.5,144.5 245.5,144.5 244.5,144.5C 244.875,148.871 245.541,153.204 246.5,157.5C 247.167,154.167 247.833,150.833 248.5,147.5C 249.225,151.255 250.225,154.922 251.5,158.5C 252.183,158.137 252.85,157.804 253.5,157.5 Z"/></g>
<g><path style="opacity:1" fill="#0d3720" d="M 427.5,163.5 C 427.082,164.222 426.416,164.722 425.5,165C 425.616,166.268 425.949,167.602 426.5,169C 425.167,169.667 423.833,169.667 422.5,169C 423.738,168.31 423.738,167.81 422.5,167.5C 421.167,156.838 421.167,146.171 422.5,135.5C 422.679,131.01 422.012,126.676 420.5,122.5C 421.328,121.585 422.328,120.919 423.5,120.5C 424.77,126.665 425.77,132.831 426.5,139C 424.991,142.698 424.325,146.365 424.5,150C 425.199,153.8 425.865,157.633 426.5,161.5C 425.019,162.944 425.352,163.611 427.5,163.5 Z"/></g>
<g><path style="opacity:1" fill="#2fb772" d="M 205.5,131.5 C 205.33,132.822 205.663,133.989 206.5,135C 204.75,136.754 204.083,138.921 204.5,141.5C 206.199,146.062 204.533,148.062 199.5,147.5C 199.67,148.822 199.337,149.989 198.5,151C 199.167,152 199.833,153 200.5,154C 198.942,154.21 197.609,154.71 196.5,155.5C 194.974,154.895 193.974,153.729 193.5,152C 193.229,149.589 193.562,147.089 194.5,144.5C 195.806,144.121 197.139,143.788 198.5,143.5C 200.64,139.017 202.14,134.351 203,129.5C 203.075,131.935 203.908,132.602 205.5,131.5 Z"/></g>
<g><path style="opacity:0.004" fill="#fefffe" d="M 331.5,144.5 C 332.833,145.167 332.833,145.167 331.5,144.5 Z"/></g>
<g><path style="opacity:0.008" fill="#000000" d="M 344.5,145.5 C 345.833,146.167 345.833,146.167 344.5,145.5 Z"/></g>
<g><path style="opacity:0.004" fill="#000000" d="M 495.5,146.5 C 494.448,146.649 493.448,146.483 492.5,146C 493.749,145.26 494.749,145.427 495.5,146.5 Z"/></g>
<g><path style="opacity:0.004" fill="#000000" d="M 623.5,145.5 C 624.833,146.167 624.833,146.167 623.5,145.5 Z"/></g>
<g><path style="opacity:1" fill="#2cad68" d="M 184.5,158.5 C 184.367,161.925 185.033,162.258 186.5,159.5C 187.404,160.209 187.737,161.209 187.5,162.5C 188.952,163.302 190.618,163.802 192.5,164C 189.865,165.164 187.198,166.331 184.5,167.5C 183.689,170.552 183.689,173.385 184.5,176C 183.619,176.708 182.953,177.542 182.5,178.5C 178.833,178.5 175.167,178.5 171.5,178.5C 172.331,173.513 173.164,168.513 174,163.5C 176.788,161.588 178.121,158.921 178,155.5C 180.167,153.17 181.834,150.503 183,147.5C 183.177,151.356 183.677,155.023 184.5,158.5 Z"/></g>
<g><path style="opacity:0.004" fill="#000000" d="M 291.5,148.5 C 290.833,147.167 290.833,147.167 291.5,148.5 Z"/></g>
<g><path style="opacity:0.816" fill="#0a2c1a" d="M 320.5,150.5 C 320.5,155.5 320.5,160.5 320.5,165.5C 319.5,165.5 318.5,165.5 317.5,165.5C 318.3,159.099 315.967,154.432 310.5,151.5C 308.152,150.048 305.486,149.382 302.5,149.5C 300.631,149.507 298.964,149.84 297.5,150.5C 296.508,150.328 295.842,150.662 295.5,151.5C 294.833,151.5 294.5,151.833 294.5,152.5C 293.532,154.607 293.198,156.941 293.5,159.5C 292.686,157.369 292.186,155.036 292,152.5C 290.989,151.663 289.822,151.33 288.5,151.5C 289.694,150.728 290.694,149.728 291.5,148.5C 299.353,145.875 307.186,145.875 315,148.5C 316.388,147.446 317.888,147.28 319.5,148C 317.258,149.007 317.592,149.841 320.5,150.5 Z"/></g>
<g><path style="opacity:0.004" fill="#000000" d="M 536.5,148.5 C 535.833,147.167 535.833,147.167 536.5,148.5 Z"/></g>
<g><path style="opacity:1" fill="#269f5d" d="M 177.5,128.5 C 178.833,128.5 180.167,128.5 181.5,128.5C 181.5,131.5 181.5,134.5 181.5,137.5C 178.411,146.353 174.744,155.019 170.5,163.5C 170.334,159.486 170.501,155.486 171,151.5C 172.244,148.362 172.911,145.028 173,141.5C 176.383,137.853 177.883,133.52 177.5,128.5 Z"/></g>
<g><path style="opacity:0.999" fill="#0b2d1b" d="M 438.5,172.5 C 438.167,171.167 437.833,171.167 437.5,172.5C 436.778,172.082 436.278,171.416 436,170.5C 435.329,171.252 434.496,171.586 433.5,171.5C 433.5,171.167 433.5,170.833 433.5,170.5C 439.207,165.96 444.04,160.627 448,154.5C 448.684,153.216 448.517,152.049 447.5,151C 445.527,150.505 443.527,150.338 441.5,150.5C 441.5,149.5 441.5,148.5 441.5,147.5C 450.192,147.169 458.859,147.502 467.5,148.5C 467.709,149.086 468.043,149.586 468.5,150C 462.709,150.063 457.709,152.063 453.5,156C 447.898,161.095 442.898,166.595 438.5,172.5 Z"/></g>
<g><path style="opacity:0.735" fill="#0c2917" d="M 495.5,146.5 C 499.954,146.422 504.287,147.089 508.5,148.5C 509.167,148.167 509.833,147.833 510.5,147.5C 511.455,148.872 512.455,150.205 513.5,151.5C 516.33,153.362 517.163,156.029 516,159.5C 513.447,161.974 510.614,162.641 507.5,161.5C 506.218,158.321 504.885,155.154 503.5,152C 500.833,151.667 498.167,151.333 495.5,151C 499.186,149.801 498.853,149.467 494.5,150C 493.068,152.164 490.735,153.998 487.5,155.5C 486.918,154.069 486.085,152.736 485,151.5C 484.184,152.823 483.017,153.489 481.5,153.5C 482.894,151.292 484.894,149.792 487.5,149C 486.833,148.667 486.167,148.333 485.5,148C 488.972,148.473 492.305,147.973 495.5,146.5 Z"/></g>
<g><path style="opacity:0.004" fill="#000000" d="M 320.5,149.5 C 321.833,150.167 321.833,150.167 320.5,149.5 Z"/></g>
<g><path style="opacity:0.878" fill="#0b2818" d="M 601.5,151.5 C 599.152,150.048 596.486,149.382 593.5,149.5C 591.631,149.507 589.964,149.84 588.5,150.5C 586.89,153.203 585.89,156.203 585.5,159.5C 585.5,158.833 585.167,158.5 584.5,158.5C 584.148,155.851 583.815,153.185 583.5,150.5C 581.778,152.56 579.778,154.227 577.5,155.5C 580.654,148.916 585.987,145.916 593.5,146.5C 599.245,147.542 604.912,148.042 610.5,148C 611.357,148.689 612.023,149.522 612.5,150.5C 611.881,155.482 611.214,160.482 610.5,165.5C 609.914,165.291 609.414,164.957 609,164.5C 608.846,160.902 607.846,157.569 606,154.5C 604.871,152.859 603.371,151.859 601.5,151.5 Z"/></g>
<g><path style="opacity:0.004" fill="#000000" d="M 297.5,151.5 C 297.5,151.167 297.5,150.833 297.5,150.5C 300.167,150.833 300.167,151.167 297.5,151.5 Z"/></g>
<g><path style="opacity:0.004" fill="#000000" d="M 398.5,150.5 C 399.833,151.167 399.833,151.167 398.5,150.5 Z"/></g>
<g><path style="opacity:0.004" fill="#000000" d="M 513.5,150.5 C 514.833,151.167 514.833,151.167 513.5,150.5 Z"/></g>
<g><path style="opacity:0.006" fill="#000000" d="M 588.5,150.5 C 589.239,150.369 589.906,150.536 590.5,151C 589.563,151.692 588.897,151.525 588.5,150.5 Z"/></g>
<g><path style="opacity:0.004" fill="#000000" d="M 595.5,151.5 C 595.897,150.475 596.563,150.308 597.5,151C 596.906,151.464 596.239,151.631 595.5,151.5 Z"/></g>
<g><path style="opacity:1" fill="#17743a" d="M 132.5,134.5 C 132.5,135.833 132.5,137.167 132.5,138.5C 132.461,139.583 132.127,140.583 131.5,141.5C 133.663,145.5 134.997,149.5 135.5,153.5C 134.936,155.819 134.436,158.153 134,160.5C 131.305,163.762 129.472,167.429 128.5,171.5C 127.344,164.011 127.178,156.345 128,148.5C 128.595,143.423 130.095,138.756 132.5,134.5 Z"/></g>
<g><path style="opacity:0.004" fill="#000000" d="M 295.5,152.5 C 295.5,152.167 295.5,151.833 295.5,151.5C 296.167,151.5 296.833,151.5 297.5,151.5C 297.158,152.338 296.492,152.672 295.5,152.5 Z"/></g>
<g><path style="opacity:0.004" fill="#000000" d="M 310.5,151.5 C 310.103,152.525 309.437,152.692 308.5,152C 309.094,151.536 309.761,151.369 310.5,151.5 Z"/></g>
<g><path style="opacity:0.004" fill="#000000" d="M 332.5,151.5 C 333.833,152.167 333.833,152.167 332.5,151.5 Z"/></g>
<g><path style="opacity:0.004" fill="#0f1f06" d="M 344.5,152.5 C 344.897,151.475 345.563,151.308 346.5,152C 345.906,152.464 345.239,152.631 344.5,152.5 Z"/></g>
<g><path style="opacity:0.005" fill="#000000" d="M 444.5,152.5 C 445.497,151.287 446.497,151.454 447.5,153C 446.423,153.47 445.423,153.303 444.5,152.5 Z"/></g>
<g><path style="opacity:0.004" fill="#000000" d="M 601.5,151.5 C 601.5,151.833 601.5,152.167 601.5,152.5C 598.833,152.167 598.833,151.833 601.5,151.5 Z"/></g>
<g><path style="opacity:0.012" fill="#0f2c07" d="M 622.5,152.5 C 623.077,151.227 623.743,151.227 624.5,152.5C 624.03,153.463 623.363,153.463 622.5,152.5 Z"/></g>
<g><path style="opacity:0.007" fill="#000000" d="M 643.5,152.5 C 644.601,151.402 645.934,151.235 647.5,152C 646.207,152.49 644.873,152.657 643.5,152.5 Z"/></g>
<g><path style="opacity:0.004" fill="#fefffe" d="M 694.5,151.5 C 695.833,152.167 695.833,152.167 694.5,151.5 Z"/></g>
<g><path style="opacity:0.004" fill="#000000" d="M 294.5,152.5 C 294.833,152.5 295.167,152.5 295.5,152.5C 295.167,155.167 294.833,155.167 294.5,152.5 Z"/></g>
<g><path style="opacity:0.004" fill="#000000" d="M 321.5,152.5 C 322.629,154.628 322.796,156.961 322,159.5C 321.503,157.19 321.337,154.857 321.5,152.5 Z"/></g>
<g><path style="opacity:0.004" fill="#000000" d="M 601.5,152.5 C 602.833,153.167 602.833,153.167 601.5,152.5 Z"/></g>
<g><path style="opacity:0.004" fill="#fefffe" d="M 112.5,153.5 C 113.833,154.167 113.833,154.167 112.5,153.5 Z"/></g>
<g><path style="opacity:1" fill="#0c2d1b" d="M 398.5,151.5 C 399.167,152.167 399.833,152.833 400.5,153.5C 399.833,153.5 399.5,153.833 399.5,154.5C 399.631,155.239 399.464,155.906 399,156.5C 397.16,155.167 396.66,155.334 397.5,157C 394.529,159.531 393.196,163.365 393.5,168.5C 392.817,163.938 391.983,159.272 391,154.5C 389.853,152.181 388.019,150.848 385.5,150.5C 384.5,149.167 383.5,149.167 382.5,150.5C 379.519,150.182 377.185,151.182 375.5,153.5C 374.167,153.833 374.167,154.167 375.5,154.5C 379.989,159.056 379.323,162.723 373.5,165.5C 367.632,163.134 366.465,159.468 370,154.5C 378.893,145.437 388.393,144.437 398.5,151.5 Z"/></g>
<g><path style="opacity:0.006" fill="#000000" d="M 375.5,154.5 C 375.5,154.167 375.5,153.833 375.5,153.5C 378.167,153.833 378.167,154.167 375.5,154.5 Z"/></g>
<g><path style="opacity:0.004" fill="#000000" d="M 382.5,150.5 C 383.5,150.5 384.5,150.5 385.5,150.5C 384.5,151.833 383.5,151.833 382.5,150.5 Z"/></g>
<g><path style="opacity:1" fill="#219855" d="M 161.5,154.5 C 161.5,159.167 161.5,163.833 161.5,168.5C 160.024,170.769 158.524,173.102 157,175.5C 154.041,182.341 151.541,189.008 149.5,195.5C 147.815,197.017 146.315,198.684 145,200.5C 143.887,199.695 142.721,199.028 141.5,198.5C 141.481,196.94 141.148,195.44 140.5,194C 141.056,192.989 141.722,192.156 142.5,191.5C 143.376,191.631 144.043,191.298 144.5,190.5C 146.924,185.739 149.257,180.906 151.5,176C 150.978,175.439 150.645,174.772 150.5,174C 152.467,170.15 154.634,166.316 157,162.5C 155.612,158.28 157.112,155.614 161.5,154.5 Z"/></g>
<g><path style="opacity:0.004" fill="#fefffe" d="M 344.5,156.5 C 345.833,157.167 345.833,157.167 344.5,156.5 Z"/></g>
<g><path style="opacity:1" fill="#41dd92" d="M 232.5,148.5 C 233.833,149.167 234.833,150.167 235.5,151.5C 236.026,154.354 237.026,157.021 238.5,159.5C 236.246,160.693 235.58,162.36 236.5,164.5C 232.604,165.734 229.604,168.068 227.5,171.5C 225.539,174.477 222.872,175.477 219.5,174.5C 220.874,170.927 223.208,168.261 226.5,166.5C 227.11,165.609 227.443,164.609 227.5,163.5C 228.725,162.848 229.392,161.681 229.5,160C 227.75,157.03 228.417,155.03 231.5,154C 231.167,153.667 230.833,153.333 230.5,153C 232.037,151.89 232.703,150.39 232.5,148.5 Z"/></g>
<g><path style="opacity:0.004" fill="#000000" d="M 294.5,158.5 C 295.833,159.167 295.833,159.167 294.5,158.5 Z"/></g>
<g><path style="opacity:0.005" fill="#000000" d="M 485.5,157.5 C 485.938,157.435 486.272,157.601 486.5,158C 485.286,160.351 484.452,162.851 484,165.5C 483.826,170.684 483.326,175.684 482.5,180.5C 482.5,179.833 482.5,179.167 482.5,178.5C 482.806,175.615 482.473,172.948 481.5,170.5C 482.078,165.835 483.411,161.501 485.5,157.5 Z"/></g>
<g><path style="opacity:0.004" fill="#000000" d="M 561.5,158.5 C 562.833,159.167 562.833,159.167 561.5,158.5 Z"/></g>
<g><path style="opacity:0.004" fill="#000000" d="M 612.5,158.5 C 613.613,159.946 613.78,161.613 613,163.5C 612.506,161.866 612.34,160.199 612.5,158.5 Z"/></g>
<g><path style="opacity:0.004" fill="#24fef0" d="M 212.5,159.5 C 212.5,160.167 212.5,160.833 212.5,161.5C 203.365,160.37 203.365,159.703 212.5,159.5 Z"/></g>
<g><path style="opacity:1" fill="#0c3720" d="M 344.5,191.5 C 344.833,191.5 345.167,191.5 345.5,191.5C 345.5,191.833 345.5,192.167 345.5,192.5C 344.375,194.377 344.709,196.21 346.5,198C 345.167,198.667 343.833,198.667 342.5,198C 341.521,195.597 340.021,194.764 338,195.5C 337.414,192.981 336.247,190.981 334.5,189.5C 334.5,189.167 334.5,188.833 334.5,188.5C 335.302,187.048 335.802,185.382 336,183.5C 336.333,175.5 336.667,167.5 337,159.5C 337.741,160.641 338.575,160.641 339.5,159.5C 340.175,169.188 341.008,178.855 342,188.5C 342.377,189.942 343.21,190.942 344.5,191.5 Z"/></g>
<g><path style="opacity:0.004" fill="#fefffe" d="M 593.5,159.5 C 594.833,160.167 594.833,160.167 593.5,159.5 Z"/></g>
<g><path style="opacity:1" fill="#0e301e" d="M 630.5,130.5 C 629.791,131.404 628.791,131.737 627.5,131.5C 627.666,136.179 627.499,140.845 627,145.5C 626.682,147.061 625.849,148.228 624.5,149C 627.078,150.716 628.411,153.216 628.5,156.5C 629.23,169.299 629.23,182.299 628.5,195.5C 627.073,193.852 626.24,191.852 626,189.5C 625.5,176.504 625.333,163.504 625.5,150.5C 617.5,149.5 617.5,148.5 625.5,147.5C 625.334,142.156 625.501,136.823 626,131.5C 627.226,129.452 628.726,129.119 630.5,130.5 Z"/></g>
<g><path style="opacity:0.006" fill="#000000" d="M 404.5,194.5 C 404.5,193.833 404.167,193.5 403.5,193.5C 403.672,192.508 403.338,191.842 402.5,191.5C 402.784,181.448 402.45,171.448 401.5,161.5C 402.117,161.389 402.617,161.056 403,160.5C 403.519,171.176 404.186,181.843 405,192.5C 407.168,193.822 407.001,194.489 404.5,194.5 Z"/></g>
<g><path style="opacity:0.004" fill="#000000" d="M 507.5,161.5 C 506.833,162.167 506.833,162.167 507.5,161.5 Z"/></g>
<g><path style="opacity:0.008" fill="#719c99" d="M 212.5,159.5 C 214.604,159.201 216.604,159.534 218.5,160.5C 218.291,161.086 217.957,161.586 217.5,162C 219.382,162.198 221.048,162.698 222.5,163.5C 221.504,163.414 220.671,163.748 220,164.5C 216.065,163.862 212.231,163.196 208.5,162.5C 210.099,162.768 211.432,162.434 212.5,161.5C 212.5,160.833 212.5,160.167 212.5,159.5 Z"/></g>
<g><path style="opacity:0.962" fill="#0d321f" d="M 288.5,151.5 C 289.822,151.33 290.989,151.663 292,152.5C 292.186,155.036 292.686,157.369 293.5,159.5C 293.833,159.5 294.167,159.5 294.5,159.5C 295.11,160.391 295.443,161.391 295.5,162.5C 293.726,163.881 292.226,163.548 291,161.5C 290.25,162.126 289.416,162.626 288.5,163C 292.942,166.253 295.942,170.42 297.5,175.5C 288.493,171.381 284.493,164.547 285.5,155C 286.71,153.961 287.71,152.794 288.5,151.5 Z"/></g>
<g><path style="opacity:0.007" fill="#010300" d="M 563.5,194.5 C 563.5,193.833 563.167,193.5 562.5,193.5C 562.5,192.833 562.5,192.167 562.5,191.5C 562.334,181.828 562.5,172.161 563,162.5C 563.333,171.833 563.667,181.167 564,190.5C 564.318,192.061 565.151,193.228 566.5,194C 565.552,194.483 564.552,194.649 563.5,194.5 Z"/></g>
<g><path style="opacity:1" fill="#3fe295" d="M 238.5,159.5 C 239.232,160.808 240.066,162.142 241,163.5C 241.414,163.043 241.914,162.709 242.5,162.5C 243.492,166.783 243.826,171.116 243.5,175.5C 244.014,177.512 244.18,179.512 244,181.5C 241.863,179.679 241.03,177.346 241.5,174.5C 239.139,174.326 236.806,173.993 234.5,173.5C 231.892,173.6 229.558,172.933 227.5,171.5C 229.604,168.068 232.604,165.734 236.5,164.5C 235.58,162.36 236.246,160.693 238.5,159.5 Z"/></g>
<g><path style="opacity:0.004" fill="#000000" d="M 528.5,163.5 C 527.833,164.167 527.833,164.167 528.5,163.5 Z"/></g>
<g><path style="opacity:1" fill="#0d331e" d="M 400.5,153.5 C 400.597,155.907 400.93,158.574 401.5,161.5C 402.45,171.448 402.784,181.448 402.5,191.5C 402.328,192.492 402.662,193.158 403.5,193.5C 404.167,193.5 404.5,193.833 404.5,194.5C 404.917,195.124 405.584,195.457 406.5,195.5C 408.036,194.751 409.369,193.751 410.5,192.5C 410.833,193 411.167,193.5 411.5,194C 409.82,200.029 405.487,202.363 398.5,201C 396.638,199.634 394.972,198.134 393.5,196.5C 393.672,195.508 393.338,194.842 392.5,194.5C 392.629,192.784 392.962,191.117 393.5,189.5C 393.5,184.833 393.5,180.167 393.5,175.5C 388.318,175.443 388.318,174.776 393.5,173.5C 393.333,173.167 393.167,172.833 393,172.5C 388.785,173.795 384.618,175.295 380.5,177C 381.167,177.333 381.833,177.667 382.5,178C 381.255,178.791 379.922,179.291 378.5,179.5C 377.853,177.859 376.853,176.526 375.5,175.5C 377.987,174.677 380.321,173.677 382.5,172.5C 386.68,172.218 390.347,170.885 393.5,168.5C 393.196,163.365 394.529,159.531 397.5,157C 396.66,155.334 397.16,155.167 399,156.5C 399.464,155.906 399.631,155.239 399.5,154.5C 400.167,154.5 400.5,154.167 400.5,153.5 Z"/></g>
<g><path style="opacity:1" fill="#0c341f" d="M 487.5,155.5 C 486.833,156.167 486.167,156.833 485.5,157.5C 483.411,161.501 482.078,165.835 481.5,170.5C 481.194,173.385 481.527,176.052 482.5,178.5C 482.5,179.167 482.5,179.833 482.5,180.5C 482.328,181.492 482.662,182.158 483.5,182.5C 483.538,184.636 484.205,185.969 485.5,186.5C 484.833,186.5 484.5,186.833 484.5,187.5C 484.905,189.65 485.405,191.65 486,193.5C 485.311,194.357 484.478,195.023 483.5,195.5C 482.378,194.37 481.044,193.703 479.5,193.5C 477.549,192.284 476.049,190.618 475,188.5C 470.195,177.872 470.862,167.539 477,157.5C 478.371,155.959 479.871,154.625 481.5,153.5C 483.017,153.489 484.184,152.823 485,151.5C 486.085,152.736 486.918,154.069 487.5,155.5 Z"/></g>
<g><path style="opacity:1" fill="#3dcc89" d="M 205.5,156.5 C 206.568,155.566 207.901,155.232 209.5,155.5C 211.167,155.5 212.833,155.5 214.5,155.5C 217.5,155.5 220.5,155.5 223.5,155.5C 224.822,155.33 225.989,155.663 227,156.5C 227.497,158.81 227.663,161.143 227.5,163.5C 227.443,164.609 227.11,165.609 226.5,166.5C 224.5,166.5 222.5,166.5 220.5,166.5C 220.64,168.124 219.973,169.29 218.5,170C 215.924,170.606 213.59,170.106 211.5,168.5C 210.416,168.685 209.416,169.018 208.5,169.5C 207.833,168.833 207.167,168.167 206.5,167.5C 204.226,165.642 201.726,165.309 199,166.5C 198.805,165.181 198.972,163.847 199.5,162.5C 202.281,162.094 205.281,162.094 208.5,162.5C 212.231,163.196 216.065,163.862 220,164.5C 220.671,163.748 221.504,163.414 222.5,163.5C 223.833,163.5 225.167,163.5 226.5,163.5C 226.795,161.265 226.461,159.265 225.5,157.5C 219.021,156.509 212.354,156.176 205.5,156.5 Z"/></g>
<g><path style="opacity:1" fill="#2b9f5f" d="M 161.5,168.5 C 160.99,171.388 161.656,173.721 163.5,175.5C 163.249,178.909 163.583,182.242 164.5,185.5C 170.128,186.495 175.794,186.829 181.5,186.5C 178.713,187.477 175.713,187.81 172.5,187.5C 168.393,188.15 164.893,187.15 162,184.5C 161.5,185.667 160.667,186.5 159.5,187C 159.057,188.518 159.724,189.685 161.5,190.5C 160.126,191.711 158.626,192.711 157,193.5C 155.848,191.488 154.682,191.322 153.5,193C 155.607,197.809 154.274,200.142 149.5,200C 150.367,203.735 152.034,207.068 154.5,210C 157.965,211.323 161.299,212.823 164.5,214.5C 167.035,216.017 169.702,217.35 172.5,218.5C 172.5,218.833 172.5,219.167 172.5,219.5C 159.508,216.007 148.841,209.007 140.5,198.5C 140.833,198.5 141.167,198.5 141.5,198.5C 142.721,199.028 143.887,199.695 145,200.5C 146.315,198.684 147.815,197.017 149.5,195.5C 151.541,189.008 154.041,182.341 157,175.5C 158.524,173.102 160.024,170.769 161.5,168.5 Z"/></g>
<g><path style="opacity:1" fill="#34c67e" d="M 206.5,167.5 C 207.167,168.167 207.833,168.833 208.5,169.5C 208.741,172.415 208.408,175.415 207.5,178.5C 204.833,178.5 202.167,178.5 199.5,178.5C 197.167,178.5 194.833,178.5 192.5,178.5C 193.972,176.866 195.638,175.366 197.5,174C 193.899,172.975 193.899,171.475 197.5,169.5C 200.193,167.73 203.193,167.063 206.5,167.5 Z"/></g>
<g><path style="opacity:0.004" fill="#000000" d="M 433.5,170.5 C 431.972,170.483 431.472,169.816 432,168.5C 432.717,169.044 433.217,169.711 433.5,170.5 Z"/></g>
<g><path style="opacity:1" fill="#0c311e" d="M 584.5,158.5 C 585.167,158.5 585.5,158.833 585.5,159.5C 586.117,161.229 587.117,162.729 588.5,164C 592.58,166.029 596.246,168.529 599.5,171.5C 596.267,170.254 592.934,169.754 589.5,170C 588.483,171.049 588.316,172.216 589,173.5C 590.984,175.613 593.484,176.78 596.5,177C 598.957,180.158 601.79,182.991 605,185.5C 605.333,185.167 605.667,184.833 606,184.5C 607.061,187.166 607.894,189.833 608.5,192.5C 608.027,193.906 607.027,194.573 605.5,194.5C 605.443,190.495 604.11,186.995 601.5,184C 594.074,179.538 586.908,174.705 580,169.5C 576.581,165.172 575.748,160.506 577.5,155.5C 579.778,154.227 581.778,152.56 583.5,150.5C 583.815,153.185 584.148,155.851 584.5,158.5 Z"/></g>
<g><path style="opacity:0.004" fill="#000000" d="M 382.5,171.5 C 382.897,170.475 383.563,170.308 384.5,171C 383.906,171.464 383.239,171.631 382.5,171.5 Z"/></g>
<g><path style="opacity:0.007" fill="#000000" d="M 538.5,172.5 C 540.119,170.762 542.119,170.262 544.5,171C 542.564,171.813 540.564,172.313 538.5,172.5 Z"/></g>
<g><path style="opacity:1" fill="#31bc71" d="M 187.5,162.5 C 191.664,162.874 195.664,162.874 199.5,162.5C 198.972,163.847 198.805,165.181 199,166.5C 201.726,165.309 204.226,165.642 206.5,167.5C 203.193,167.063 200.193,167.73 197.5,169.5C 193.899,171.475 193.899,172.975 197.5,174C 195.638,175.366 193.972,176.866 192.5,178.5C 189.167,178.5 185.833,178.5 182.5,178.5C 182.953,177.542 183.619,176.708 184.5,176C 183.689,173.385 183.689,170.552 184.5,167.5C 187.198,166.331 189.865,165.164 192.5,164C 190.618,163.802 188.952,163.302 187.5,162.5 Z"/></g>
<g><path style="opacity:0.005" fill="#000000" d="M 382.5,171.5 C 382.5,171.833 382.5,172.167 382.5,172.5C 378.5,172.167 378.5,171.833 382.5,171.5 Z"/></g>
<g><path style="opacity:1" fill="#3ad289" d="M 226.5,166.5 C 223.208,168.261 220.874,170.927 219.5,174.5C 218.867,174.88 218.2,175.213 217.5,175.5C 218.993,176.141 219.993,177.141 220.5,178.5C 216.167,178.5 211.833,178.5 207.5,178.5C 208.408,175.415 208.741,172.415 208.5,169.5C 209.416,169.018 210.416,168.685 211.5,168.5C 213.59,170.106 215.924,170.606 218.5,170C 219.973,169.29 220.64,168.124 220.5,166.5C 222.5,166.5 224.5,166.5 226.5,166.5 Z"/></g>
<g><path style="opacity:0.004" fill="#000000" d="M 377.5,172.5 C 378.833,173.167 378.833,173.167 377.5,172.5 Z"/></g>
<g><path style="opacity:0.84" fill="#0d2b18" d="M 433.5,171.5 C 432.833,173.167 432.167,174.833 431.5,176.5C 430.833,176.5 430.5,176.833 430.5,177.5C 429.226,176.811 429.226,175.977 430.5,175C 429.956,174.283 429.289,173.783 428.5,173.5C 427.463,177.436 427.13,183.436 427.5,191.5C 426.799,188.437 426.132,185.27 425.5,182C 426.712,180.893 426.379,180.393 424.5,180.5C 422.835,178.59 422.501,176.59 423.5,174.5C 422.246,172.666 421.579,170.666 421.5,168.5C 421.5,167.833 421.833,167.5 422.5,167.5C 423.738,167.81 423.738,168.31 422.5,169C 423.833,169.667 425.167,169.667 426.5,169C 425.949,167.602 425.616,166.268 425.5,165C 426.416,164.722 427.082,164.222 427.5,163.5C 427.5,162.5 427.5,161.5 427.5,160.5C 428.324,156.688 428.824,152.688 429,148.5C 429.333,155.5 429.667,162.5 430,169.5C 430.533,171.939 431.7,172.605 433.5,171.5 Z"/></g>
<g><path style="opacity:0.004" fill="#000000" d="M 538.5,172.5 C 538.5,172.833 538.5,173.167 538.5,173.5C 537.83,173.019 537.83,172.685 538.5,172.5 Z"/></g>
<g><path style="opacity:1" fill="#46de97" d="M 253.5,160.5 C 252.41,176.003 246.91,189.67 237,201.5C 235.223,203.79 233.056,205.457 230.5,206.5C 229.34,204.797 230.007,204.131 232.5,204.5C 232.34,202.801 232.506,201.134 233,199.5C 233.333,200.5 233.667,201.5 234,202.5C 234.645,201.354 235.478,200.354 236.5,199.5C 234.267,196.787 232.6,193.787 231.5,190.5C 235.549,190.13 237.549,187.796 237.5,183.5C 237.386,179.219 235.386,176.553 231.5,175.5C 233.179,175.715 234.179,175.048 234.5,173.5C 236.806,173.993 239.139,174.326 241.5,174.5C 241.03,177.346 241.863,179.679 244,181.5C 244.18,179.512 244.014,177.512 243.5,175.5C 244.833,175.5 246.167,175.5 247.5,175.5C 249.652,171.597 250.819,167.264 251,162.5C 251.417,161.244 252.25,160.577 253.5,160.5 Z"/></g>
<g><path style="opacity:1" fill="#0c3720" d="M 295.5,162.5 C 296.167,162.5 296.5,162.833 296.5,163.5C 296.062,163.435 295.728,163.601 295.5,164C 297.412,165.2 298.745,166.867 299.5,169C 304.037,171.43 308.37,174.097 312.5,177C 311.874,177.75 311.374,178.584 311,179.5C 307.262,178.29 303.595,176.956 300,175.5C 299.235,175.57 298.735,175.903 298.5,176.5C 297.833,176.5 297.5,176.167 297.5,175.5C 295.942,170.42 292.942,166.253 288.5,163C 289.416,162.626 290.25,162.126 291,161.5C 292.226,163.548 293.726,163.881 295.5,162.5 Z"/></g>
<g><path style="opacity:0.004" fill="#000000" d="M 534.5,173.5 C 535.833,174.167 535.833,174.167 534.5,173.5 Z"/></g>
<g><path style="opacity:1" fill="#0d341f" d="M 554.5,148.5 C 559.155,150.162 561.488,153.495 561.5,158.5C 560.957,158.56 560.624,158.893 560.5,159.5C 561.145,170.295 561.812,180.962 562.5,191.5C 562.5,192.167 562.5,192.833 562.5,193.5C 563.167,193.5 563.5,193.833 563.5,194.5C 564.601,195.598 565.934,195.765 567.5,195C 570.599,191.679 571.599,192.179 570.5,196.5C 569.167,196.833 569.167,197.167 570.5,197.5C 566.478,201.501 561.811,202.335 556.5,200C 555.29,198.961 554.29,197.794 553.5,196.5C 553.672,195.508 553.338,194.842 552.5,194.5C 551.105,193.352 551.272,192.352 553,191.5C 553.26,181.042 553.76,170.876 554.5,161C 553.312,157.268 551.645,153.768 549.5,150.5C 551.029,148.684 552.696,148.017 554.5,148.5 Z"/></g>
<g><path style="opacity:0.004" fill="#fefffe" d="M 492.5,175.5 C 493.833,176.167 493.833,176.167 492.5,175.5 Z"/></g>
<g><path style="opacity:0.004" fill="#000000" d="M 531.5,176.5 C 530.833,175.167 530.833,175.167 531.5,176.5 Z"/></g>
<g><path style="opacity:0.338" fill="#0a2918" d="M 554.5,148.5 C 552.696,148.017 551.029,148.684 549.5,150.5C 551.645,153.768 553.312,157.268 554.5,161C 553.76,170.876 553.26,181.042 553,191.5C 551.272,192.352 551.105,193.352 552.5,194.5C 553.338,194.842 553.672,195.508 553.5,196.5C 550.075,197.722 546.742,199.222 543.5,201C 536.8,202.589 530.966,201.089 526,196.5C 524.921,193.937 524.421,191.271 524.5,188.5C 525.391,190.291 526.391,192.124 527.5,194C 527.167,194.333 526.833,194.667 526.5,195C 531.478,199.527 537.144,200.86 543.5,199C 542.421,198.044 541.255,197.211 540,196.5C 538.512,197.196 537.012,196.862 535.5,195.5C 535.624,194.893 535.957,194.56 536.5,194.5C 543.11,197.02 548.276,195.353 552,189.5C 552.667,183.833 552.667,178.167 552,172.5C 549.234,173.732 546.401,174.732 543.5,175.5C 543.167,174.833 542.833,174.167 542.5,173.5C 545.55,171.899 548.884,170.899 552.5,170.5C 552.665,166.818 552.499,163.152 552,159.5C 551.861,156.555 550.694,154.221 548.5,152.5C 548.5,151.833 548.167,151.5 547.5,151.5C 545.68,149.539 543.68,149.206 541.5,150.5C 539.692,150.491 538.025,150.991 536.5,152C 537.203,156.08 537.536,160.247 537.5,164.5C 536.441,165.696 535.107,166.363 533.5,166.5C 531.816,165.473 530.149,164.473 528.5,163.5C 527.137,160.786 527.304,158.119 529,155.5C 531.396,152.933 533.896,150.6 536.5,148.5C 542.548,146.04 548.548,146.04 554.5,148.5 Z M 541.5,150.5 C 543.68,149.206 545.68,149.539 547.5,151.5C 545.5,151.167 543.5,150.833 541.5,150.5 Z"/></g>
<g><path style="opacity:0.004" fill="#000000" d="M 548.5,152.5 C 547.833,153.167 547.833,153.167 548.5,152.5 Z"/></g>
<g><path style="opacity:1" fill="#41df95" d="M 227.5,171.5 C 229.558,172.933 231.892,173.6 234.5,173.5C 234.179,175.048 233.179,175.715 231.5,175.5C 230.527,175.987 229.527,176.487 228.5,177C 229.729,178.529 231.229,179.696 233,180.5C 233.667,182.5 233.667,184.5 233,186.5C 232.617,187.056 232.117,187.389 231.5,187.5C 229.173,178.276 227.673,178.609 227,188.5C 225.057,189.807 223.223,189.807 221.5,188.5C 226.244,187.148 227.578,184.148 225.5,179.5C 223.929,178.691 222.262,178.357 220.5,178.5C 219.993,177.141 218.993,176.141 217.5,175.5C 218.2,175.213 218.867,174.88 219.5,174.5C 222.872,175.477 225.539,174.477 227.5,171.5 Z"/></g>
<g><path style="opacity:0.004" fill="#fefffe" d="M 673.5,176.5 C 674.833,177.167 674.833,177.167 673.5,176.5 Z"/></g>
<g><path style="opacity:0.007" fill="#000000" d="M 540.5,177.5 C 541.239,177.369 541.906,177.536 542.5,178C 535.015,181.265 533.348,186.265 537.5,193C 537.272,193.399 536.938,193.565 536.5,193.5C 535.5,193.167 534.833,192.5 534.5,191.5C 534.5,190.833 534.167,190.5 533.5,190.5C 532.468,184.224 534.801,179.891 540.5,177.5 Z"/></g>
<g><path style="opacity:0.012" fill="#0b3f06" d="M 428.5,173.5 C 429.289,173.783 429.956,174.283 430.5,175C 429.226,175.977 429.226,176.811 430.5,177.5C 430.5,178.167 430.833,178.5 431.5,178.5C 429.701,181.505 429.034,184.838 429.5,188.5C 429.167,188.5 428.833,188.5 428.5,188.5C 428.5,183.5 428.5,178.5 428.5,173.5 Z"/></g>
<g><path style="opacity:1" fill="#0e3320" d="M 296.5,163.5 C 304.387,167.438 311.887,172.771 319,179.5C 319.791,180.745 320.291,182.078 320.5,183.5C 319.244,183.461 318.244,183.961 317.5,185C 321.557,188.339 321.39,190.505 317,191.5C 316.34,189.676 315.173,188.343 313.5,187.5C 309.366,182.707 304.366,179.04 298.5,176.5C 298.735,175.903 299.235,175.57 300,175.5C 303.595,176.956 307.262,178.29 311,179.5C 311.374,178.584 311.874,177.75 312.5,177C 308.37,174.097 304.037,171.43 299.5,169C 298.745,166.867 297.412,165.2 295.5,164C 295.728,163.601 296.062,163.435 296.5,163.5 Z"/></g>
<g><path style="opacity:1" fill="#0d341e" d="M 599.5,171.5 C 603.672,173.158 607.172,175.825 610,179.5C 610.333,179.167 610.667,178.833 611,178.5C 613.292,181.304 613.792,184.304 612.5,187.5C 612.5,189.167 612.5,190.833 612.5,192.5C 611.167,192.5 609.833,192.5 608.5,192.5C 607.894,189.833 607.061,187.166 606,184.5C 605.667,184.833 605.333,185.167 605,185.5C 601.79,182.991 598.957,180.158 596.5,177C 593.484,176.78 590.984,175.613 589,173.5C 588.316,172.216 588.483,171.049 589.5,170C 592.934,169.754 596.267,170.254 599.5,171.5 Z"/></g>
<g><path style="opacity:0.998" fill="#0d301f" d="M 418.5,119.5 C 418.082,120.222 417.416,120.722 416.5,121C 417.667,121.5 418.5,122.333 419,123.5C 419.001,138.707 419.835,153.707 421.5,168.5C 421.579,170.666 422.246,172.666 423.5,174.5C 422.501,176.59 422.835,178.59 424.5,180.5C 423.325,180.281 422.325,180.614 421.5,181.5C 422.419,185.811 422.752,189.977 422.5,194C 421.016,194.662 419.683,195.496 418.5,196.5C 418.667,172.498 418.5,148.498 418,124.5C 416.89,122.963 415.39,122.297 413.5,122.5C 413.5,121.5 413.5,120.5 413.5,119.5C 415.167,119.5 416.833,119.5 418.5,119.5 Z"/></g>
<g><path style="opacity:0.004" fill="#000000" d="M 433.5,180.5 C 432.833,181.167 432.833,181.167 433.5,180.5 Z"/></g>
<g><path style="opacity:1" fill="#0c321d" d="M 437.5,172.5 C 437.833,172.5 438.167,172.5 438.5,172.5C 441.457,176.792 444.79,180.792 448.5,184.5C 447.791,185.404 446.791,185.737 445.5,185.5C 445.67,184.178 445.337,183.011 444.5,182C 443.065,182.311 441.732,182.145 440.5,181.5C 440.301,185.341 441.801,188.674 445,191.5C 445.617,190.551 445.451,189.718 444.5,189C 445.5,188.333 446.5,188.333 447.5,189C 451.58,191.704 455.247,194.871 458.5,198.5C 457.833,198.833 457.167,199.167 456.5,199.5C 453.578,198.202 450.578,197.202 447.5,196.5C 442.833,191.167 438.167,185.833 433.5,180.5C 433.167,179.5 432.5,178.833 431.5,178.5C 431.5,177.833 431.5,177.167 431.5,176.5C 432.167,174.833 432.833,173.167 433.5,171.5C 434.496,171.586 435.329,171.252 436,170.5C 436.278,171.416 436.778,172.082 437.5,172.5 Z"/></g>
<g><path style="opacity:0.004" fill="#fefffe" d="M 20.5,181.5 C 21.8333,182.167 21.8333,182.167 20.5,181.5 Z"/></g>
<g><path style="opacity:0.004" fill="#000000" d="M 483.5,181.5 C 484.833,182.167 484.833,182.167 483.5,181.5 Z"/></g>
<g><path style="opacity:0.004" fill="#fefffe" d="M 269.5,183.5 C 270.833,184.167 270.833,184.167 269.5,183.5 Z"/></g>
<g><path style="opacity:1" fill="#0c311d" d="M 448.5,184.5 C 453.375,191.058 459.375,196.058 466.5,199.5C 459.487,202.489 453.154,201.489 447.5,196.5C 450.578,197.202 453.578,198.202 456.5,199.5C 457.167,199.167 457.833,198.833 458.5,198.5C 455.247,194.871 451.58,191.704 447.5,189C 446.5,188.333 445.5,188.333 444.5,189C 445.451,189.718 445.617,190.551 445,191.5C 441.801,188.674 440.301,185.341 440.5,181.5C 441.732,182.145 443.065,182.311 444.5,182C 445.337,183.011 445.67,184.178 445.5,185.5C 446.791,185.737 447.791,185.404 448.5,184.5 Z"/></g>
<g><path style="opacity:1" fill="#3cc883" d="M 195.5,188.5 C 197.167,188.5 198.833,188.5 200.5,188.5C 200.611,189.117 200.944,189.617 201.5,190C 199.349,195.467 196.682,200.633 193.5,205.5C 193.833,206.167 194.167,206.833 194.5,207.5C 191.306,209.223 189.639,211.889 189.5,215.5C 187.801,215.34 186.134,215.506 184.5,216C 185.448,216.483 186.448,216.649 187.5,216.5C 187.5,217.5 187.5,218.5 187.5,219.5C 191.01,219.668 194.51,220.001 198,220.5C 202.082,219.38 206.248,218.713 210.5,218.5C 203.893,221.215 196.893,222.549 189.5,222.5C 183.506,222.632 177.839,221.632 172.5,219.5C 172.5,219.167 172.5,218.833 172.5,218.5C 174.857,218.663 177.19,218.497 179.5,218C 181.167,216.333 182.833,214.667 184.5,213C 183.294,210.291 184.294,208.625 187.5,208C 186.483,206.951 186.316,205.784 187,204.5C 190.297,199.468 193.13,194.135 195.5,188.5 Z"/></g>
<g><path style="opacity:0.004" fill="#fefffe" d="M 27.5,189.5 C 28.8333,190.167 28.8333,190.167 27.5,189.5 Z"/></g>
<g><path style="opacity:1" fill="#3cd38a" d="M 200.5,188.5 C 202.833,188.5 205.167,188.5 207.5,188.5C 207.938,188.435 208.272,188.601 208.5,189C 205.797,195.598 202.797,202.098 199.5,208.5C 194.482,210.289 194.482,211.456 199.5,212C 198.944,212.383 198.611,212.883 198.5,213.5C 197.711,213.783 197.044,214.283 196.5,215C 200.849,217.849 205.182,218.016 209.5,215.5C 211.62,217.009 213.287,216.676 214.5,214.5C 215.376,214.631 216.043,214.298 216.5,213.5C 215.737,212.281 214.737,211.281 213.5,210.5C 214.5,210.167 215.5,209.833 216.5,209.5C 219.067,210.664 221.734,211.33 224.5,211.5C 220.419,214.874 215.753,217.207 210.5,218.5C 206.248,218.713 202.082,219.38 198,220.5C 194.51,220.001 191.01,219.668 187.5,219.5C 187.5,218.5 187.5,217.5 187.5,216.5C 186.448,216.649 185.448,216.483 184.5,216C 186.134,215.506 187.801,215.34 189.5,215.5C 189.639,211.889 191.306,209.223 194.5,207.5C 194.167,206.833 193.833,206.167 193.5,205.5C 196.682,200.633 199.349,195.467 201.5,190C 200.944,189.617 200.611,189.117 200.5,188.5 Z"/></g>
<g><path style="opacity:1" fill="#40d58f" d="M 199.5,178.5 C 202.167,178.5 204.833,178.5 207.5,178.5C 211.833,178.5 216.167,178.5 220.5,178.5C 222.262,178.357 223.929,178.691 225.5,179.5C 227.578,184.148 226.244,187.148 221.5,188.5C 219.167,188.5 216.833,188.5 214.5,188.5C 211.724,188.089 211.057,188.922 212.5,191C 210.352,195.573 208.352,200.239 206.5,205C 208.476,208.365 207.476,209.865 203.5,209.5C 203.5,210.833 203.5,212.167 203.5,213.5C 201.833,213.5 200.167,213.5 198.5,213.5C 198.611,212.883 198.944,212.383 199.5,212C 194.482,211.456 194.482,210.289 199.5,208.5C 202.797,202.098 205.797,195.598 208.5,189C 208.272,188.601 207.938,188.435 207.5,188.5C 207.5,187.833 207.5,187.167 207.5,186.5C 213.167,186.5 218.833,186.5 224.5,186.5C 224.5,184.5 224.5,182.5 224.5,180.5C 223.5,180.5 222.5,180.5 221.5,180.5C 214.167,179.833 206.833,179.167 199.5,178.5 Z"/></g>
<g><path style="opacity:1" fill="#41e095" d="M 231.5,187.5 C 230.791,188.404 229.791,188.737 228.5,188.5C 228.326,190.861 227.993,193.194 227.5,195.5C 226.167,195.5 224.833,195.5 223.5,195.5C 223.89,198.983 224.89,202.316 226.5,205.5C 227.736,206.246 229.07,206.579 230.5,206.5C 229.089,208.914 227.089,210.581 224.5,211.5C 221.734,211.33 219.067,210.664 216.5,209.5C 215.5,209.833 214.5,210.167 213.5,210.5C 214.737,211.281 215.737,212.281 216.5,213.5C 216.043,214.298 215.376,214.631 214.5,214.5C 212.048,215.045 209.715,214.378 207.5,212.5C 211.288,206.209 215.288,200.042 219.5,194C 219.355,193.228 219.022,192.561 218.5,192C 217.167,191.667 215.833,191.333 214.5,191C 215.598,190.23 215.598,189.397 214.5,188.5C 216.833,188.5 219.167,188.5 221.5,188.5C 223.223,189.807 225.057,189.807 227,188.5C 227.673,178.609 229.173,178.276 231.5,187.5 Z"/></g>
<g><path style="opacity:1" fill="#40e295" d="M 231.5,175.5 C 235.386,176.553 237.386,179.219 237.5,183.5C 237.549,187.796 235.549,190.13 231.5,190.5C 232.6,193.787 234.267,196.787 236.5,199.5C 235.478,200.354 234.645,201.354 234,202.5C 233.667,201.5 233.333,200.5 233,199.5C 232.506,201.134 232.34,202.801 232.5,204.5C 230.007,204.131 229.34,204.797 230.5,206.5C 229.07,206.579 227.736,206.246 226.5,205.5C 224.89,202.316 223.89,198.983 223.5,195.5C 224.833,195.5 226.167,195.5 227.5,195.5C 227.993,193.194 228.326,190.861 228.5,188.5C 229.791,188.737 230.791,188.404 231.5,187.5C 232.117,187.389 232.617,187.056 233,186.5C 233.667,184.5 233.667,182.5 233,180.5C 231.229,179.696 229.729,178.529 228.5,177C 229.527,176.487 230.527,175.987 231.5,175.5 Z"/></g>
<g><path style="opacity:1" fill="#33c47b" d="M 188.5,188.5 C 190.833,188.5 193.167,188.5 195.5,188.5C 193.13,194.135 190.297,199.468 187,204.5C 186.316,205.784 186.483,206.951 187.5,208C 184.294,208.625 183.294,210.291 184.5,213C 182.833,214.667 181.167,216.333 179.5,218C 177.19,218.497 174.857,218.663 172.5,218.5C 171.183,216.124 171.85,214.457 174.5,213.5C 175.675,213.719 176.675,213.386 177.5,212.5C 181.505,204.1 185.171,196.1 188.5,188.5 Z"/></g>
<g><path style="opacity:0.973" fill="#0a2b1a" d="M 290.5,190.5 C 290.541,192.745 291.375,193.412 293,192.5C 294.487,193.253 294.654,194.086 293.5,195C 294.167,195.667 294.833,196.333 295.5,197C 300.411,198.492 305.411,198.826 310.5,198C 312.635,197.241 313.968,195.741 314.5,193.5C 313.652,191.591 313.318,189.591 313.5,187.5C 315.173,188.343 316.34,189.676 317,191.5C 321.39,190.505 321.557,188.339 317.5,185C 318.244,183.961 319.244,183.461 320.5,183.5C 321.29,184.609 321.79,185.942 322,187.5C 322.897,183.586 323.397,183.752 323.5,188C 320.496,198.734 312.163,203.068 298.5,201C 294.23,200.743 290.23,199.576 286.5,197.5C 285.337,191.863 285.17,186.196 286,180.5C 287.016,179.366 287.683,179.699 288,181.5C 288.204,184.797 289.037,187.797 290.5,190.5 Z"/></g>
<g><path style="opacity:0.004" fill="#000000" d="M 290.5,189.5 C 291.833,190.167 291.833,190.167 290.5,189.5 Z"/></g>
<g><path style="opacity:1" fill="#0d361f" d="M 375.5,175.5 C 376.853,176.526 377.853,177.859 378.5,179.5C 376.856,178.634 375.189,178.134 373.5,178C 374.022,178.561 374.355,179.228 374.5,180C 373.598,183.711 372.265,187.211 370.5,190.5C 371.025,191.192 371.692,191.692 372.5,192C 372.167,192.333 371.833,192.667 371.5,193C 378.135,196.604 377.469,197.937 369.5,197C 368.667,196.167 367.833,195.333 367,194.5C 367.711,191.401 367.545,188.568 366.5,186C 368.006,183.012 369.673,180.179 371.5,177.5C 372.833,176.833 374.167,176.167 375.5,175.5 Z"/></g>
<g><path style="opacity:1" fill="#0c2d1b" d="M 371.5,177.5 C 369.673,180.179 368.006,183.012 366.5,186C 367.545,188.568 367.711,191.401 367,194.5C 367.833,195.333 368.667,196.167 369.5,197C 377.469,197.937 378.135,196.604 371.5,193C 371.833,192.667 372.167,192.333 372.5,192C 371.692,191.692 371.025,191.192 370.5,190.5C 372.265,187.211 373.598,183.711 374.5,180C 374.355,179.228 374.022,178.561 373.5,178C 375.189,178.134 376.856,178.634 378.5,179.5C 377.426,180.885 376.093,182.051 374.5,183C 375.47,186.848 376.136,190.514 376.5,194C 383.54,197.069 389.207,195.569 393.5,189.5C 392.962,191.117 392.629,192.784 392.5,194.5C 387.686,200.717 381.353,202.884 373.5,201C 364.81,196.756 362.643,190.256 367,181.5C 368.371,179.959 369.871,178.625 371.5,177.5 Z"/></g>
<g><path style="opacity:1" fill="#0c341f" d="M 635.5,192.5 C 635.833,192.5 636.167,192.5 636.5,192.5C 637.167,192.5 637.5,192.833 637.5,193.5C 637.611,194.117 637.944,194.617 638.5,195C 643.006,196.338 646.673,195.171 649.5,191.5C 650.547,192.922 650.547,194.422 649.5,196C 645.388,201.165 640.055,202.832 633.5,201C 630.921,199.924 629.254,198.091 628.5,195.5C 629.23,182.299 629.23,169.299 628.5,156.5C 629.158,155.602 629.824,154.602 630.5,153.5C 630.675,154.933 631.342,156.6 632.5,158.5C 631.196,167.137 631.196,175.804 632.5,184.5C 633.08,187.447 634.08,190.114 635.5,192.5 Z"/></g>
<g><path style="opacity:1" fill="#2aaa64" d="M 172.5,187.5 C 172.389,188.117 172.056,188.617 171.5,189C 169.1,189.186 166.766,189.686 164.5,190.5C 165.325,191.386 166.325,191.719 167.5,191.5C 167.276,194.566 165.943,197.066 163.5,199C 163.833,199.333 164.167,199.667 164.5,200C 162.928,202.038 161.928,204.371 161.5,207C 162.094,207.464 162.761,207.631 163.5,207.5C 164.067,208.42 163.401,208.754 161.5,208.5C 161.615,210.947 162.615,212.947 164.5,214.5C 161.299,212.823 157.965,211.323 154.5,210C 152.034,207.068 150.367,203.735 149.5,200C 154.274,200.142 155.607,197.809 153.5,193C 154.682,191.322 155.848,191.488 157,193.5C 158.626,192.711 160.126,191.711 161.5,190.5C 159.724,189.685 159.057,188.518 159.5,187C 160.667,186.5 161.5,185.667 162,184.5C 164.893,187.15 168.393,188.15 172.5,187.5 Z"/></g>
<g><path style="opacity:1" fill="#2fb771" d="M 174.5,191.5 C 176.5,191.5 178.5,191.5 180.5,191.5C 178.531,197.608 175.864,203.441 172.5,209C 173.414,210.406 174.08,211.906 174.5,213.5C 171.85,214.457 171.183,216.124 172.5,218.5C 169.702,217.35 167.035,216.017 164.5,214.5C 162.615,212.947 161.615,210.947 161.5,208.5C 163.401,208.754 164.067,208.42 163.5,207.5C 166.416,202.493 168.416,197.16 169.5,191.5C 171.167,191.5 172.833,191.5 174.5,191.5 Z"/></g>
<g><path style="opacity:0.004" fill="#000000" d="M 363.5,192.5 C 364.833,193.167 364.833,193.167 363.5,192.5 Z"/></g>
<g><path style="opacity:1" fill="#0c331f" d="M 424.5,180.5 C 426.379,180.393 426.712,180.893 425.5,182C 426.132,185.27 426.799,188.437 427.5,191.5C 427.232,193.099 427.566,194.432 428.5,195.5C 428.5,196.167 428.833,196.5 429.5,196.5C 430.66,197.265 431.66,198.265 432.5,199.5C 426.537,200.496 420.537,200.829 414.5,200.5C 414.5,199.5 414.5,198.5 414.5,197.5C 415.959,197.567 417.292,197.234 418.5,196.5C 419.683,195.496 421.016,194.662 422.5,194C 422.752,189.977 422.419,185.811 421.5,181.5C 422.325,180.614 423.325,180.281 424.5,180.5 Z"/></g>
<g><path style="opacity:0.007" fill="#020701" d="M 428.5,188.5 C 428.833,188.5 429.167,188.5 429.5,188.5C 429.986,191.382 429.986,194.048 429.5,196.5C 428.833,196.5 428.5,196.167 428.5,195.5C 428.5,193.167 428.5,190.833 428.5,188.5 Z"/></g>
<g><path style="opacity:0.004" fill="#000000" d="M 640.5,193.5 C 641.833,194.167 641.833,194.167 640.5,193.5 Z"/></g>
<g><path style="opacity:1" fill="#34b270" d="M 181.5,186.5 C 190.167,186.5 198.833,186.5 207.5,186.5C 207.5,187.167 207.5,187.833 207.5,188.5C 205.167,188.5 202.833,188.5 200.5,188.5C 198.833,188.5 197.167,188.5 195.5,188.5C 193.167,188.5 190.833,188.5 188.5,188.5C 185.482,188.335 182.482,188.502 179.5,189C 180.696,189.654 180.696,190.154 179.5,190.5C 177.239,188.827 175.572,189.16 174.5,191.5C 172.833,191.5 171.167,191.5 169.5,191.5C 168.416,197.16 166.416,202.493 163.5,207.5C 162.761,207.631 162.094,207.464 161.5,207C 161.928,204.371 162.928,202.038 164.5,200C 164.167,199.667 163.833,199.333 163.5,199C 165.943,197.066 167.276,194.566 167.5,191.5C 166.325,191.719 165.325,191.386 164.5,190.5C 166.766,189.686 169.1,189.186 171.5,189C 172.056,188.617 172.389,188.117 172.5,187.5C 175.713,187.81 178.713,187.477 181.5,186.5 Z"/></g>
<g><path style="opacity:0.004" fill="#000000" d="M 416.5,194.5 C 417.833,195.167 417.833,195.167 416.5,194.5 Z"/></g>
<g><path style="opacity:1" fill="#0c341e" d="M 538.5,173.5 C 539.833,173.5 541.167,173.5 542.5,173.5C 542.833,174.167 543.167,174.833 543.5,175.5C 542.29,175.932 541.29,176.599 540.5,177.5C 534.801,179.891 532.468,184.224 533.5,190.5C 534.167,190.5 534.5,190.833 534.5,191.5C 534.833,192.5 535.5,193.167 536.5,193.5C 536.5,193.833 536.5,194.167 536.5,194.5C 535.957,194.56 535.624,194.893 535.5,195.5C 537.012,196.862 538.512,197.196 540,196.5C 541.255,197.211 542.421,198.044 543.5,199C 537.144,200.86 531.478,199.527 526.5,195C 526.833,194.667 527.167,194.333 527.5,194C 526.391,192.124 525.391,190.291 524.5,188.5C 524.796,183.233 527.129,179.233 531.5,176.5C 534.157,176.065 536.491,175.065 538.5,173.5 Z"/></g>
<g><path style="opacity:0.951" fill="#0a2c1a" d="M 479.5,193.5 C 481.044,193.703 482.378,194.37 483.5,195.5C 484.478,195.023 485.311,194.357 486,193.5C 485.405,191.65 484.905,189.65 484.5,187.5C 485.167,187.5 485.5,187.167 485.5,186.5C 487.127,187.846 487.794,189.346 487.5,191C 492.384,195.136 498.051,196.469 504.5,195C 506.066,194.392 507.4,193.558 508.5,192.5C 512.115,190.979 514.615,188.313 516,184.5C 516.333,185.833 516.667,187.167 517,188.5C 519.033,187.984 519.033,188.65 517,190.5C 516.667,190.167 516.333,189.833 516,189.5C 512.835,197.539 506.501,201.539 497,201.5C 489.776,201.604 483.943,198.937 479.5,193.5 Z"/></g>
<g><path style="opacity:0.004" fill="#000000" d="M 508.5,192.5 C 507.833,191.167 507.833,191.167 508.5,192.5 Z"/></g>
<g><path style="opacity:0.004" fill="#000000" d="M 393.5,196.5 C 392.833,197.167 392.833,197.167 393.5,196.5 Z"/></g>
<g><path style="opacity:0.004" fill="#000000" d="M 570.5,196.5 C 571.833,197.167 571.833,197.167 570.5,196.5 Z"/></g>
<g><path style="opacity:0.747" fill="#092614" d="M 605.5,194.5 C 607.027,194.573 608.027,193.906 608.5,192.5C 609.833,192.5 611.167,192.5 612.5,192.5C 612.5,190.833 612.5,189.167 612.5,187.5C 613.956,194.138 611.29,198.805 604.5,201.5C 597.569,201.723 590.569,201.389 583.5,200.5C 582.791,199.596 581.791,199.263 580.5,199.5C 579.739,198.609 578.739,197.942 577.5,197.5C 576.505,191.872 576.171,186.206 576.5,180.5C 577.5,180.5 578.5,180.5 579.5,180.5C 579.336,183.187 579.503,185.854 580,188.5C 580.333,187.167 580.667,185.833 581,184.5C 581.739,188.062 583.239,191.228 585.5,194C 584.542,195.147 584.875,196.147 586.5,197C 591.411,198.492 596.411,198.826 601.5,198C 603.35,197.31 604.684,196.144 605.5,194.5 Z"/></g>
<g><path style="opacity:1" fill="#0b311c" d="M 334.5,189.5 C 336.247,190.981 337.414,192.981 338,195.5C 340.021,194.764 341.521,195.597 342.5,198C 343.833,198.667 345.167,198.667 346.5,198C 344.709,196.21 344.375,194.377 345.5,192.5C 346.167,192.5 346.5,192.833 346.5,193.5C 347.167,193.5 347.5,193.833 347.5,194.5C 349.628,195.629 351.961,195.796 354.5,195C 355.685,193.647 357.019,192.48 358.5,191.5C 359.386,194.116 358.72,196.449 356.5,198.5C 345.265,204.854 337.932,201.854 334.5,189.5 Z"/></g>
<g><path style="opacity:0.004" fill="#fefffe" d="M 654.5,198.5 C 655.833,199.167 655.833,199.167 654.5,198.5 Z"/></g>
<g><path style="opacity:1" fill="#31bd76" d="M 188.5,188.5 C 185.171,196.1 181.505,204.1 177.5,212.5C 176.675,213.386 175.675,213.719 174.5,213.5C 174.08,211.906 173.414,210.406 172.5,209C 175.864,203.441 178.531,197.608 180.5,191.5C 178.5,191.5 176.5,191.5 174.5,191.5C 175.572,189.16 177.239,188.827 179.5,190.5C 180.696,190.154 180.696,189.654 179.5,189C 182.482,188.502 185.482,188.335 188.5,188.5 Z"/></g>
<g><path style="opacity:1" fill="#3edd91" d="M 214.5,188.5 C 215.598,189.397 215.598,190.23 214.5,191C 215.833,191.333 217.167,191.667 218.5,192C 219.022,192.561 219.355,193.228 219.5,194C 215.288,200.042 211.288,206.209 207.5,212.5C 209.715,214.378 212.048,215.045 214.5,214.5C 213.287,216.676 211.62,217.009 209.5,215.5C 205.182,218.016 200.849,217.849 196.5,215C 197.044,214.283 197.711,213.783 198.5,213.5C 200.167,213.5 201.833,213.5 203.5,213.5C 203.5,212.167 203.5,210.833 203.5,209.5C 207.476,209.865 208.476,208.365 206.5,205C 208.352,200.239 210.352,195.573 212.5,191C 211.057,188.922 211.724,188.089 214.5,188.5 Z"/></g>
<g><path style="opacity:0.004" fill="#000000" d="M 580.5,199.5 C 579.833,200.167 579.833,200.167 580.5,199.5 Z"/></g>
<g><path style="opacity:0.004" fill="#000000" d="M 583.5,200.5 C 582.833,201.167 582.833,201.167 583.5,200.5 Z"/></g>
<g><path style="opacity:0.004" fill="#fefffe" d="M 324.5,202.5 C 325.833,203.167 325.833,203.167 324.5,202.5 Z"/></g>
<g><path style="opacity:0.004" fill="#000000" d="M 594.5,203.5 C 595.601,202.402 596.934,202.235 598.5,203C 597.207,203.49 595.873,203.657 594.5,203.5 Z"/></g>
<g><path style="opacity:0.004" fill="#fefffe" d="M 639.5,206.5 C 640.833,207.167 640.833,207.167 639.5,206.5 Z"/></g>
<g><path style="opacity:0.004" fill="#fefffe" d="M 394.5,211.5 C 395.833,212.167 395.833,212.167 394.5,211.5 Z"/></g>
<g><path style="opacity:0.004" fill="#fefffe" d="M 522.5,220.5 C 523.833,221.167 523.833,221.167 522.5,220.5 Z"/></g>
<g><path style="opacity:0.004" fill="#fefffe" d="M 712.5,220.5 C 713.833,221.167 713.833,221.167 712.5,220.5 Z"/></g>
<g><path style="opacity:0.004" fill="#fefffe" d="M 738.5,223.5 C 739.833,224.167 739.833,224.167 738.5,223.5 Z"/></g>
<g><path style="opacity:0.004" fill="#fefffe" d="M 365.5,224.5 C 366.833,225.167 366.833,225.167 365.5,224.5 Z"/></g>
<g><path style="opacity:0.004" fill="#fefffe" d="M 454.5,231.5 C 455.833,232.167 455.833,232.167 454.5,231.5 Z"/></g>
<g><path style="opacity:0.004" fill="#fefffe" d="M 306.5,235.5 C 307.833,236.167 307.833,236.167 306.5,235.5 Z"/></g>
<g><path style="opacity:0.004" fill="#fefffe" d="M 60.5,246.5 C 61.8333,247.167 61.8333,247.167 60.5,246.5 Z"/></g>
<g><path style="opacity:0.004" fill="#fefffe" d="M 69.5,248.5 C 70.8333,249.167 70.8333,249.167 69.5,248.5 Z"/></g>
<g><path style="opacity:0.004" fill="#fefffe" d="M 419.5,252.5 C 420.833,253.167 420.833,253.167 419.5,252.5 Z"/></g>
<g><path style="opacity:0.004" fill="#fefffe" d="M 707.5,256.5 C 708.833,257.167 708.833,257.167 707.5,256.5 Z"/></g>
<g><path style="opacity:0.004" fill="#fefffe" d="M 551.5,260.5 C 552.833,261.167 552.833,261.167 551.5,260.5 Z"/></g>
<g><path style="opacity:0.004" fill="#fefffe" d="M 220.5,261.5 C 221.833,262.167 221.833,262.167 220.5,261.5 Z"/></g>
<g><path style="opacity:0.004" fill="#fefffe" d="M 280.5,263.5 C 281.833,264.167 281.833,264.167 280.5,263.5 Z"/></g>
<g><path style="opacity:0.004" fill="#fefffe" d="M 286.5,265.5 C 287.833,266.167 287.833,266.167 286.5,265.5 Z"/></g>
<g><path style="opacity:0.004" fill="#fefffe" d="M 460.5,270.5 C 461.833,271.167 461.833,271.167 460.5,270.5 Z"/></g>
<g><path style="opacity:0.004" fill="#fefffe" d="M 614.5,276.5 C 615.833,277.167 615.833,277.167 614.5,276.5 Z"/></g>
<g><path style="opacity:0.004" fill="#fefffe" d="M 492.5,277.5 C 493.833,278.167 493.833,278.167 492.5,277.5 Z"/></g>
<g><path style="opacity:0.004" fill="#fefffe" d="M 696.5,280.5 C 697.833,281.167 697.833,281.167 696.5,280.5 Z"/></g>
<g><path style="opacity:0.004" fill="#fefffe" d="M 335.5,294.5 C 336.833,295.167 336.833,295.167 335.5,294.5 Z"/></g>
<g><path style="opacity:0.004" fill="#fefffe" d="M 348.5,295.5 C 349.833,296.167 349.833,296.167 348.5,295.5 Z"/></g>
<g><path style="opacity:0.004" fill="#fefffe" d="M 696.5,297.5 C 697.833,298.167 697.833,298.167 696.5,297.5 Z"/></g>
<g><path style="opacity:0.004" fill="#fefffe" d="M 92.5,300.5 C 93.8333,301.167 93.8333,301.167 92.5,300.5 Z"/></g>
<g><path style="opacity:0.004" fill="#fefffe" d="M 731.5,300.5 C 732.833,301.167 732.833,301.167 731.5,300.5 Z"/></g>
<g><path style="opacity:0.004" fill="#fefffe" d="M 443.5,304.5 C 444.833,305.167 444.833,305.167 443.5,304.5 Z"/></g>
<g><path style="opacity:0.004" fill="#fefffe" d="M 451.5,304.5 C 452.833,305.167 452.833,305.167 451.5,304.5 Z"/></g>
<g><path style="opacity:0.004" fill="#fefffe" d="M 610.5,304.5 C 611.833,305.167 611.833,305.167 610.5,304.5 Z"/></g>
<g><path style="opacity:0.004" fill="#fefffe" d="M 617.5,304.5 C 618.833,305.167 618.833,305.167 617.5,304.5 Z"/></g>
<g><path style="opacity:0.004" fill="#fefffe" d="M 76.5,307.5 C 77.8333,308.167 77.8333,308.167 76.5,307.5 Z"/></g>
<g><path style="opacity:0.004" fill="#fefffe" d="M 225.5,307.5 C 226.833,308.167 226.833,308.167 225.5,307.5 Z"/></g>
<g><path style="opacity:0.004" fill="#fefffe" d="M 196.5,317.5 C 197.833,318.167 197.833,318.167 196.5,317.5 Z"/></g>
</svg>
